<svg width="50" height="50" viewBox="0 0 50 50" fill="none" xmlns="http://www.w3.org/2000/svg">
<rect width="50" height="50" rx="8" fill="#10130A"/>
<g clip-path="url(#clip0_698_2816)">
<path d="M24.9688 25.0001L11.9137 19.6361L12.7188 39.4001H9.21875L10.0588 18.8621L7.46875 17.8001L24.9688 10.6001L42.4688 17.8001L24.9688 25.0001ZM24.9688 16.0001C24.0063 16.0001 23.2188 16.3961 23.2188 16.9001C23.2188 17.4041 24.0063 17.8001 24.9688 17.8001C25.9312 17.8001 26.7188 17.4041 26.7188 16.9001C26.7188 16.3961 25.9312 16.0001 24.9688 16.0001ZM24.9688 26.8001L34.7162 22.7861C35.9587 24.4781 36.8162 26.5121 37.0963 28.7261C36.5713 28.6541 36.0287 28.6001 35.4688 28.6001C31.0063 28.6001 27.1038 31.0661 24.9688 34.7381C23.8851 32.8675 22.3477 31.3183 20.5071 30.2424C18.6665 29.1664 16.5858 28.6005 14.4688 28.6001C13.9088 28.6001 13.3663 28.6541 12.8412 28.7261C13.1212 26.5121 13.9787 24.4781 15.2212 22.7861L24.9688 26.8001Z" fill="url(#paint0_linear_698_2816)"/>
</g>
<defs>
<linearGradient id="paint0_linear_698_2816" x1="5.62677" y1="10.6001" x2="49.621" y2="8.10102" gradientUnits="userSpaceOnUse">
<stop stop-color="#49D043"/>
<stop offset="1" stop-color="#FFB912"/>
</linearGradient>
<clipPath id="clip0_698_2816">
<rect width="35" height="36" fill="white" transform="translate(7.46875 7)"/>
</clipPath>
</defs>
</svg>
