<svg width="50" height="50" viewBox="0 0 50 50" fill="none" xmlns="http://www.w3.org/2000/svg">
<rect width="50" height="50" rx="8" fill="#10130A"/>
<g clip-path="url(#clip0_698_2821)">
<path d="M36.6354 12.8335C37.409 12.8335 38.1508 13.1408 38.6978 13.6878C39.2448 14.2347 39.5521 14.9766 39.5521 15.7502V30.3335C39.5521 31.9522 38.2542 33.2502 36.6354 33.2502H42.4688V36.1668H7.46875V33.2502H13.3021C12.5285 33.2502 11.7867 32.9429 11.2397 32.3959C10.6927 31.8489 10.3854 31.107 10.3854 30.3335V15.7502C10.3854 14.1314 11.6833 12.8335 13.3021 12.8335H36.6354ZM36.6354 15.7502H13.3021V30.3335H36.6354V15.7502ZM24.9688 24.5002C28.1917 24.5002 30.8021 25.8127 30.8021 27.4168V28.8752H19.1354V27.4168C19.1354 25.8127 21.7458 24.5002 24.9688 24.5002ZM24.9688 17.2085C25.7423 17.2085 26.4842 17.5158 27.0311 18.0628C27.5781 18.6097 27.8854 19.3516 27.8854 20.1252C27.8854 20.8987 27.5781 21.6406 27.0311 22.1876C26.4842 22.7345 25.7423 23.0418 24.9688 23.0418C23.35 23.0418 22.0521 21.7439 22.0521 20.1252C22.0521 18.5064 23.3646 17.2085 24.9688 17.2085Z" fill="url(#paint0_linear_698_2821)"/>
</g>
<defs>
<linearGradient id="paint0_linear_698_2821" x1="5.62677" y1="12.8335" x2="49.5471" y2="9.75411" gradientUnits="userSpaceOnUse">
<stop stop-color="#49D043"/>
<stop offset="1" stop-color="#FFB912"/>
</linearGradient>
<clipPath id="clip0_698_2821">
<rect width="35" height="35" fill="white" transform="translate(7.46875 7)"/>
</clipPath>
</defs>
</svg>
