<svg width="50" height="50" viewBox="0 0 50 50" fill="none" xmlns="http://www.w3.org/2000/svg">
<rect width="50" height="50" rx="8" fill="#10130A"/>
<g clip-path="url(#clip0_698_2826)">
<path d="M18.6688 25C21.9572 25 24.6187 22.4559 24.6187 19.3125C24.6187 16.1691 21.9572 13.625 18.6688 13.625C15.3803 13.625 12.7188 16.1691 12.7188 19.3125C12.7188 22.4559 15.3803 25 18.6688 25ZM22.7487 26.625H22.3078C21.2028 27.1328 19.9756 27.4375 18.6688 27.4375C17.3619 27.4375 16.14 27.1328 15.0297 26.625H14.5887C11.21 26.625 8.46875 29.2453 8.46875 32.475V33.9375C8.46875 35.2832 9.61094 36.375 11.0188 36.375H26.3188C27.7266 36.375 28.8688 35.2832 28.8688 33.9375V32.475C28.8688 29.2453 26.1275 26.625 22.7487 26.625ZM33.9688 25C36.7844 25 39.0688 22.8164 39.0688 20.125C39.0688 17.4336 36.7844 15.25 33.9688 15.25C31.1531 15.25 28.8688 17.4336 28.8688 20.125C28.8688 22.8164 31.1531 25 33.9688 25ZM36.5188 26.625H36.3169C35.5784 26.8687 34.7975 27.0312 33.9688 27.0312C33.14 27.0312 32.3591 26.8687 31.6206 26.625H31.4188C30.335 26.625 29.3363 26.9246 28.4597 27.407C29.7559 28.7426 30.5688 30.5148 30.5688 32.475V34.425C30.5688 34.5367 30.5422 34.6434 30.5369 34.75H39.9188C41.3266 34.75 42.4688 33.6582 42.4688 32.3125C42.4688 29.1691 39.8072 26.625 36.5188 26.625Z" fill="url(#paint0_linear_698_2826)"/>
</g>
<defs>
<linearGradient id="paint0_linear_698_2826" x1="6.67939" y1="13.625" x2="49.3464" y2="10.6444" gradientUnits="userSpaceOnUse">
<stop stop-color="#49D043"/>
<stop offset="1" stop-color="#FFB912"/>
</linearGradient>
<clipPath id="clip0_698_2826">
<rect width="34" height="26" fill="white" transform="translate(8.46875 12)"/>
</clipPath>
</defs>
</svg>
