<svg width="50" height="50" viewBox="0 0 50 50" fill="none" xmlns="http://www.w3.org/2000/svg">
<rect width="50" height="50" rx="8" fill="#10130A"/>
<path d="M10.7812 32.2188H39.2188V34.2812H10.7812V32.2188ZM12.9688 35.3125H37.0312V37.375H12.9688V35.3125ZM40.3125 19.8438C38.5726 19.8419 36.9046 19.1894 35.6743 18.0294C34.444 16.8694 33.752 15.2967 33.75 13.6562V12.625H16.25V13.6562C16.248 15.2967 15.556 16.8694 14.3257 18.0294C13.0954 19.1894 11.4274 19.8419 9.6875 19.8438H8.59375V23.9688H9.6875C11.4274 23.9706 13.0954 24.6231 14.3257 25.7831C15.556 26.9431 16.248 28.5158 16.25 30.1562V31.1875H33.75V30.1562C33.752 28.5158 34.444 26.9431 35.6743 25.7831C36.9046 24.6231 38.5726 23.9706 40.3125 23.9688H41.4062V19.8438H40.3125ZM25 28.0938C23.7021 28.0938 22.4333 27.7309 21.3541 27.051C20.2749 26.3711 19.4337 25.4047 18.937 24.2741C18.4403 23.1435 18.3104 21.8994 18.5636 20.6991C18.8168 19.4989 19.4418 18.3964 20.3596 17.531C21.2774 16.6657 22.4467 16.0764 23.7197 15.8376C24.9927 15.5989 26.3122 15.7214 27.5114 16.1897C28.7105 16.6581 29.7354 17.4511 30.4565 18.4687C31.1776 19.4862 31.5625 20.6825 31.5625 21.9062C31.5605 23.5467 30.8685 25.1194 29.6382 26.2794C28.4079 27.4394 26.7399 28.0919 25 28.0938Z" fill="url(#paint0_linear_698_3057)"/>
<path d="M14.0625 13.6562V12.625H8.59375V17.7812H9.6875C10.8474 17.7801 11.9595 17.3451 12.7797 16.5717C13.5999 15.7984 14.0612 14.7499 14.0625 13.6562ZM9.6875 26.0312H8.59375V31.1875H14.0625V30.1562C14.0612 29.0626 13.5999 28.0141 12.7797 27.2408C11.9595 26.4674 10.8474 26.0324 9.6875 26.0312ZM40.3125 17.7812H41.4062V12.625H35.9375V13.6562C35.9388 14.7499 36.4001 15.7984 37.2203 16.5717C38.0405 17.3451 39.1526 17.7801 40.3125 17.7812ZM35.9375 30.1562V31.1875H41.4062V26.0312H40.3125C39.1526 26.0324 38.0405 26.4674 37.2203 27.2408C36.4001 28.0141 35.9388 29.0626 35.9375 30.1562Z" fill="url(#paint1_linear_698_3057)"/>
<path d="M25 26.0312C27.4162 26.0312 29.375 24.1844 29.375 21.9062C29.375 19.6281 27.4162 17.7812 25 17.7812C22.5838 17.7812 20.625 19.6281 20.625 21.9062C20.625 24.1844 22.5838 26.0312 25 26.0312Z" fill="url(#paint2_linear_698_3057)"/>
<defs>
<linearGradient id="paint0_linear_698_3057" x1="6.86689" y1="12.625" x2="48.0863" y2="10.0707" gradientUnits="userSpaceOnUse">
<stop stop-color="#49D043"/>
<stop offset="1" stop-color="#FFB912"/>
</linearGradient>
<linearGradient id="paint1_linear_698_3057" x1="6.86689" y1="12.625" x2="47.964" y2="9.22936" gradientUnits="userSpaceOnUse">
<stop stop-color="#49D043"/>
<stop offset="1" stop-color="#FFB912"/>
</linearGradient>
<linearGradient id="paint2_linear_698_3057" x1="20.1645" y1="17.7812" x2="31.1715" y2="17.2356" gradientUnits="userSpaceOnUse">
<stop stop-color="#49D043"/>
<stop offset="1" stop-color="#FFB912"/>
</linearGradient>
</defs>
</svg>
