<svg width="50" height="50" viewBox="0 0 50 50" fill="none" xmlns="http://www.w3.org/2000/svg">
<rect width="50" height="50" rx="8" fill="#10130A"/>
<path d="M17.7096 30.8335C18.1228 30.8335 18.4694 30.6935 18.7494 30.4135C19.0294 30.1335 19.1689 29.7874 19.168 29.3752C19.167 28.9629 19.027 28.6168 18.748 28.3368C18.4689 28.0568 18.1228 27.9168 17.7096 27.9168C17.2964 27.9168 16.9503 28.0568 16.6713 28.3368C16.3923 28.6168 16.2523 28.9629 16.2513 29.3752C16.2503 29.7874 16.3903 30.134 16.6713 30.415C16.9523 30.6959 17.2984 30.8354 17.7096 30.8335ZM16.2513 26.4585H19.168V19.1668H16.2513V26.4585ZM22.0846 29.3752H33.7513V26.4585H22.0846V29.3752ZM22.0846 23.5418H33.7513V20.6252H22.0846V23.5418ZM13.3346 36.6668C12.5326 36.6668 11.8462 36.3815 11.2755 35.8108C10.7048 35.2401 10.4189 34.5532 10.418 33.7502V16.2502C10.418 15.4481 10.7038 14.7617 11.2755 14.191C11.8471 13.6203 12.5335 13.3345 13.3346 13.3335H36.668C37.4701 13.3335 38.1569 13.6193 38.7286 14.191C39.3003 14.7627 39.5856 15.4491 39.5846 16.2502V33.7502C39.5846 34.5522 39.2993 35.2391 38.7286 35.8108C38.1579 36.3825 37.471 36.6678 36.668 36.6668H13.3346Z" fill="url(#paint0_linear_698_3064)"/>
<defs>
<linearGradient id="paint0_linear_698_3064" x1="8.88298" y1="13.3335" x2="45.538" y2="11.1918" gradientUnits="userSpaceOnUse">
<stop stop-color="#49D043"/>
<stop offset="1" stop-color="#FFB912"/>
</linearGradient>
</defs>
</svg>
