<svg xmlns="http://www.w3.org/2000/svg" width="31" height="32" viewBox="0 0 31 32" fill="none">
  <g clip-path="url(#clip0_698_466)">
    <path d="M25.6428 23.2089C26.1367 23.2091 26.6115 23.3993 26.9689 23.7402C27.3263 24.081 27.5389 24.5462 27.5627 25.0395C27.5864 25.5328 27.4195 26.0163 27.0964 26.3899C26.7734 26.7634 26.319 26.9984 25.8274 27.046L25.6428 27.055H5.1301C4.63623 27.0547 4.16139 26.8645 3.80397 26.5237C3.44654 26.1829 3.23394 25.7176 3.21021 25.2243C3.18647 24.731 3.35343 24.2475 3.67648 23.874C3.99954 23.5004 4.45392 23.2655 4.94548 23.2178L5.1301 23.2089H25.6428ZM25.6428 14.2346C26.1528 14.2346 26.642 14.4372 27.0026 14.7978C27.3632 15.1585 27.5659 15.6476 27.5659 16.1576C27.5659 16.6677 27.3632 17.1568 27.0026 17.5174C26.642 17.8781 26.1528 18.0807 25.6428 18.0807H5.1301C4.62007 18.0807 4.13093 17.8781 3.77028 17.5174C3.40964 17.1568 3.20703 16.6677 3.20703 16.1576C3.20703 15.6476 3.40964 15.1585 3.77028 14.7978C4.13093 14.4372 4.62007 14.2346 5.1301 14.2346H25.6428ZM25.6428 5.26025C26.1528 5.26025 26.642 5.46286 27.0026 5.82351C27.3632 6.18415 27.5659 6.67329 27.5659 7.18332C27.5659 7.69335 27.3632 8.18249 27.0026 8.54313C26.642 8.90378 26.1528 9.10638 25.6428 9.10638H5.1301C4.62007 9.10638 4.13093 8.90378 3.77028 8.54313C3.40964 8.18249 3.20703 7.69335 3.20703 7.18332C3.20703 6.67329 3.40964 6.18415 3.77028 5.82351C4.13093 5.46286 4.62007 5.26025 5.1301 5.26025H25.6428Z" fill="white"/>
  </g>
  <defs>
    <clipPath id="clip0_698_466">
      <rect width="30.769" height="30.769" fill="white" transform="translate(0 0.773071)"/>
    </clipPath>
  </defs>
</svg>