<svg width="57" height="57" viewBox="0 0 57 57" fill="none" xmlns="http://www.w3.org/2000/svg">
<rect width="57" height="57" fill="#1E1E1E"/>
<g clip-path="url(#clip0_0_1)">
<rect width="1440" height="12945" transform="translate(-169 -9224)" fill="#090C09"/>
<g opacity="0.49" filter="url(#filter0_f_0_1)">
<ellipse cx="611" cy="-676" rx="320" ry="231" fill="url(#paint0_linear_0_1)"/>
</g>
<g filter="url(#filter1_b_0_1)">
<rect x="-22" y="-70" width="564" height="209" rx="12" fill="url(#paint1_linear_0_1)" fill-opacity="0.03"/>
<rect x="-21.5" y="-69.5" width="563" height="208" rx="11.5" stroke="url(#paint2_linear_0_1)" stroke-opacity="0.2"/>
<g opacity="0.1" filter="url(#filter2_d_0_1)">
<rect x="4.72656" y="3.43945" width="48.1206" height="48.1206" rx="7.58581" fill="white"/>
</g>
<g filter="url(#filter3_d_0_1)">
<rect x="8.42578" y="7.1416" width="40.7174" height="40.7174" rx="6.50212" fill="#1E2412"/>
</g>
<path d="M17.2852 17.6068C17.2852 17.1752 17.4566 16.7613 17.7618 16.4561C18.067 16.1509 18.4809 15.9795 18.9125 15.9795H38.4404C38.8719 15.9795 39.2859 16.1509 39.591 16.4561C39.8962 16.7613 40.0677 17.1752 40.0677 17.6068V20.8615C40.0677 21.2931 39.8962 21.707 39.591 22.0122C39.2859 22.3173 38.8719 22.4888 38.4404 22.4888H18.9125C18.4809 22.4888 18.067 22.3173 17.7618 22.0122C17.4566 21.707 17.2852 21.2931 17.2852 20.8615V17.6068ZM17.2852 27.3708C17.2852 26.9392 17.4566 26.5252 17.7618 26.2201C18.067 25.9149 18.4809 25.7434 18.9125 25.7434H28.6764C29.108 25.7434 29.5219 25.9149 29.8271 26.2201C30.1323 26.5252 30.3037 26.9392 30.3037 27.3708V37.1347C30.3037 37.5663 30.1323 37.9802 29.8271 38.2854C29.5219 38.5906 29.108 38.762 28.6764 38.762H18.9125C18.4809 38.762 18.067 38.5906 17.7618 38.2854C17.4566 37.9802 17.2852 37.5663 17.2852 37.1347V27.3708ZM35.1857 25.7434C34.7541 25.7434 34.3402 25.9149 34.035 26.2201C33.7298 26.5252 33.5584 26.9392 33.5584 27.3708V37.1347C33.5584 37.5663 33.7298 37.9802 34.035 38.2854C34.3402 38.5906 34.7541 38.762 35.1857 38.762H38.4404C38.8719 38.762 39.2859 38.5906 39.591 38.2854C39.8962 37.9802 40.0677 37.5663 40.0677 37.1347V27.3708C40.0677 26.9392 39.8962 26.5252 39.591 26.2201C39.2859 25.9149 38.8719 25.7434 38.4404 25.7434H35.1857Z" fill="url(#paint3_linear_0_1)"/>
</g>
</g>
<defs>
<filter id="filter0_f_0_1" x="-555.043" y="-1753.04" width="2332.09" height="2154.09" filterUnits="userSpaceOnUse" color-interpolation-filters="sRGB">
<feFlood flood-opacity="0" result="BackgroundImageFix"/>
<feBlend mode="normal" in="SourceGraphic" in2="BackgroundImageFix" result="shape"/>
<feGaussianBlur stdDeviation="423.022" result="effect1_foregroundBlur_0_1"/>
</filter>
<filter id="filter1_b_0_1" x="-111.6" y="-159.6" width="743.2" height="388.2" filterUnits="userSpaceOnUse" color-interpolation-filters="sRGB">
<feFlood flood-opacity="0" result="BackgroundImageFix"/>
<feGaussianBlur in="BackgroundImageFix" stdDeviation="44.8"/>
<feComposite in2="SourceAlpha" operator="in" result="effect1_backgroundBlur_0_1"/>
<feBlend mode="normal" in="SourceGraphic" in2="effect1_backgroundBlur_0_1" result="shape"/>
</filter>
<filter id="filter2_d_0_1" x="0.955453" y="0.379874" width="55.6633" height="55.6633" filterUnits="userSpaceOnUse" color-interpolation-filters="sRGB">
<feFlood flood-opacity="0" result="BackgroundImageFix"/>
<feColorMatrix in="SourceAlpha" type="matrix" values="0 0 0 0 0 0 0 0 0 0 0 0 0 0 0 0 0 0 127 0" result="hardAlpha"/>
<feOffset dy="0.71153"/>
<feGaussianBlur stdDeviation="1.88555"/>
<feComposite in2="hardAlpha" operator="out"/>
<feColorMatrix type="matrix" values="0 0 0 0 0 0 0 0 0 0 0 0 0 0 0 0 0 0 0.11 0"/>
<feBlend mode="normal" in2="BackgroundImageFix" result="effect1_dropShadow_0_1"/>
<feBlend mode="normal" in="SourceGraphic" in2="effect1_dropShadow_0_1" result="shape"/>
</filter>
<filter id="filter3_d_0_1" x="2.68224" y="2.10959" width="52.2058" height="52.2049" filterUnits="userSpaceOnUse" color-interpolation-filters="sRGB">
<feFlood flood-opacity="0" result="BackgroundImageFix"/>
<feColorMatrix in="SourceAlpha" type="matrix" values="0 0 0 0 0 0 0 0 0 0 0 0 0 0 0 0 0 0 127 0" result="hardAlpha"/>
<feOffset dy="0.71153"/>
<feGaussianBlur stdDeviation="2.87177"/>
<feComposite in2="hardAlpha" operator="out"/>
<feColorMatrix type="matrix" values="0 0 0 0 1 0 0 0 0 1 0 0 0 0 1 0 0 0 0.06 0"/>
<feBlend mode="normal" in2="BackgroundImageFix" result="effect1_dropShadow_0_1"/>
<feBlend mode="normal" in="SourceGraphic" in2="effect1_dropShadow_0_1" result="shape"/>
</filter>
<linearGradient id="paint0_linear_0_1" x1="71.5983" y1="-1020.07" x2="779.263" y2="-1212.07" gradientUnits="userSpaceOnUse">
<stop stop-color="#49D043"/>
<stop offset="1" stop-color="#FFB912"/>
</linearGradient>
<linearGradient id="paint1_linear_0_1" x1="-51.6822" y1="-70" x2="648.403" y2="-158.306" gradientUnits="userSpaceOnUse">
<stop stop-color="#49D043"/>
<stop offset="1" stop-color="#FFB912"/>
</linearGradient>
<linearGradient id="paint2_linear_0_1" x1="-51.6822" y1="-70" x2="648.403" y2="-158.306" gradientUnits="userSpaceOnUse">
<stop stop-color="#49D043"/>
<stop offset="1" stop-color="#FFB912"/>
</linearGradient>
<linearGradient id="paint3_linear_0_1" x1="16.0862" y1="15.9795" x2="44.7531" y2="14.6395" gradientUnits="userSpaceOnUse">
<stop stop-color="#49D043"/>
<stop offset="1" stop-color="#FFB912"/>
</linearGradient>
<clipPath id="clip0_0_1">
<rect width="1440" height="12945" fill="white" transform="translate(-169 -9224)"/>
</clipPath>
</defs>
</svg>
