<svg xmlns="http://www.w3.org/2000/svg" width="36" height="36" viewBox="0 0 36 36" fill="none">
  <g clip-path="url(#clip0_698_1825)">
    <path d="M11.1949 16.5416L10.2227 19.5555H12.1671L11.1949 16.5416Z" fill="url(#paint0_linear_698_1825)"/>
    <path d="M29.9566 3.41663H14.401V8.27774H18.2899V10.2222H5.65104C3.99826 10.2222 2.73438 11.4861 2.73438 13.1388V23.8333C2.73438 25.4861 3.99826 26.75 5.65104 26.75H6.62326V31.7083L12.7483 26.75H19.2622V19.9444H29.9566C31.6094 19.9444 32.8733 18.6805 32.8733 17.0277V6.33329C32.8733 4.68051 31.6094 3.41663 29.9566 3.41663ZM13.2344 22.7638L12.7483 21.2083H9.73437L9.15104 22.7638H6.81771L10.026 14.1111H12.3594L15.5677 22.7638H13.2344ZM28.0122 15.0833V17.0277C26.7483 17.0277 25.3872 16.6388 24.2205 16.0555C23.0538 16.6388 21.6927 16.9305 20.3316 17.0277L20.2344 15.0833C20.9149 15.0833 21.5955 14.9861 22.276 14.7916C21.401 13.9166 20.8177 12.8472 20.526 11.6805H22.5677C22.8594 12.5555 23.4427 13.2361 24.1233 13.8194C25.1927 12.9444 25.8733 11.6805 25.9705 10.2222H20.1372V8.27774H23.0538V6.33329H24.9983V8.27774H28.2066L28.3038 9.24996C28.401 11.2916 27.6233 13.3333 26.1649 14.7916C26.8455 14.9861 27.4288 15.0833 28.0122 15.0833Z" fill="url(#paint1_linear_698_1825)"/>
  </g>
  <defs>
    <linearGradient id="paint0_linear_698_1825" x1="10.1203" y1="16.5416" x2="12.5701" y2="16.4677" gradientUnits="userSpaceOnUse">
      <stop stop-color="#49D043"/>
      <stop offset="1" stop-color="#FFB912"/>
    </linearGradient>
    <linearGradient id="paint1_linear_698_1825" x1="1.14822" y1="3.41662" x2="39.0604" y2="1.52883" gradientUnits="userSpaceOnUse">
      <stop stop-color="#49D043"/>
      <stop offset="1" stop-color="#FFB912"/>
    </linearGradient>
    <clipPath id="clip0_698_1825">
      <rect width="35" height="35" fill="white" transform="translate(0.5 0.5)"/>
    </clipPath>
  </defs>
</svg>