<svg width="182" height="46" viewBox="0 0 182 46" fill="none" xmlns="http://www.w3.org/2000/svg">
<path d="M41.7776 35.9743C40.4757 35.9743 39.1739 35.9287 37.8721 35.8373C36.5931 35.7688 35.257 35.5861 33.8638 35.2892V12.2672C34.96 12.0616 36.1591 11.9131 37.461 11.8218C38.7628 11.7076 39.9733 11.6505 41.0924 11.6505C42.5998 11.6505 43.9816 11.7647 45.2377 11.9931C46.5167 12.1986 47.613 12.5641 48.5266 13.0894C49.4402 13.6147 50.1482 14.3113 50.6506 15.1792C51.1759 16.0242 51.4386 17.0748 51.4386 18.331C51.4386 20.2267 50.525 21.7226 48.6979 22.8189C50.2053 23.3899 51.233 24.1664 51.7812 25.1485C52.3293 26.1306 52.6034 27.2383 52.6034 28.4716C52.6034 30.9611 51.6898 32.8339 49.8627 34.0901C48.0584 35.3463 45.3633 35.9743 41.7776 35.9743ZM39.0711 25.3198V31.4522C39.4594 31.4978 39.8819 31.5321 40.3387 31.5549C40.7955 31.5778 41.298 31.5892 41.8461 31.5892C43.4448 31.5892 44.7353 31.3608 45.7174 30.904C46.6994 30.4472 47.1905 29.6022 47.1905 28.3689C47.1905 27.2726 46.7794 26.496 45.9572 26.0393C45.135 25.5596 43.9587 25.3198 42.4285 25.3198H39.0711ZM39.0711 21.243H41.6748C43.3192 21.243 44.4955 21.0374 45.2035 20.6263C45.9115 20.1924 46.2655 19.5072 46.2655 18.5708C46.2655 17.6116 45.9001 16.9378 45.1692 16.5495C44.4384 16.1613 43.3649 15.9671 41.9489 15.9671C41.4921 15.9671 41.001 15.9785 40.4757 16.0014C39.9504 16.0014 39.4822 16.0242 39.0711 16.0699V21.243ZM61.6435 35.666H56.5389V17.6458H61.6435V35.666ZM62.1231 12.4385C62.1231 13.3749 61.8148 14.1171 61.1981 14.6653C60.6043 15.1906 59.8963 15.4532 59.0741 15.4532C58.2518 15.4532 57.5324 15.1906 56.9157 14.6653C56.3219 14.1171 56.025 13.3749 56.025 12.4385C56.025 11.502 56.3219 10.7712 56.9157 10.2459C57.5324 9.69774 58.2518 9.42367 59.0741 9.42367C59.8963 9.42367 60.6043 9.69774 61.1981 10.2459C61.8148 10.7712 62.1231 11.502 62.1231 12.4385ZM66.2706 13.1579L71.3752 12.3357V17.6458H77.5075V21.8939H71.3752V28.2318C71.3752 29.3053 71.5579 30.1617 71.9233 30.8012C72.3116 31.4407 73.0767 31.7605 74.2187 31.7605C74.7668 31.7605 75.3264 31.7148 75.8973 31.6235C76.4912 31.5093 77.0279 31.3608 77.5075 31.1781L78.2269 35.1521C77.6103 35.4034 76.9251 35.6203 76.1714 35.8031C75.4177 35.9858 74.4927 36.0771 73.3964 36.0771C72.0032 36.0771 70.8499 35.8944 69.9363 35.529C69.0227 35.1407 68.2919 34.6154 67.7437 33.9531C67.1956 33.2679 66.8073 32.4457 66.5789 31.4864C66.3734 30.5272 66.2706 29.4651 66.2706 28.3003V13.1579Z" fill="white" fill-opacity="0.75"/>
<path d="M124.913 32.1031C125.416 32.1031 125.895 32.0917 126.352 32.0688C126.809 32.046 127.174 32.0117 127.448 31.966V28.0948C127.243 28.0491 126.934 28.0034 126.523 27.9578C126.112 27.9121 125.735 27.8892 125.393 27.8892C124.913 27.8892 124.456 27.9235 124.022 27.992C123.611 28.0377 123.246 28.1405 122.926 28.3003C122.606 28.4602 122.355 28.6772 122.172 28.9513C121.99 29.2253 121.898 29.5679 121.898 29.979C121.898 30.7784 122.161 31.338 122.686 31.6577C123.234 31.9546 123.977 32.1031 124.913 32.1031ZM124.502 17.1662C126.009 17.1662 127.266 17.3375 128.27 17.6801C129.275 18.0227 130.075 18.5137 130.669 19.1532C131.285 19.7927 131.719 20.5692 131.97 21.4828C132.222 22.3964 132.347 23.4127 132.347 24.5319V35.1521C131.616 35.312 130.6 35.4947 129.298 35.7003C127.996 35.9287 126.42 36.0429 124.57 36.0429C123.406 36.0429 122.344 35.9401 121.384 35.7345C120.448 35.529 119.637 35.1978 118.952 34.741C118.267 34.2614 117.742 33.6447 117.376 32.891C117.011 32.1373 116.828 31.2124 116.828 30.1161C116.828 29.0655 117.034 28.1747 117.445 27.4439C117.879 26.713 118.45 26.1306 119.158 25.6967C119.866 25.2627 120.676 24.9544 121.59 24.7717C122.504 24.5661 123.451 24.4633 124.433 24.4633C125.096 24.4633 125.678 24.4976 126.181 24.5661C126.706 24.6118 127.128 24.6803 127.448 24.7717V24.292C127.448 23.4242 127.186 22.7276 126.66 22.2023C126.135 21.6769 125.221 21.4143 123.92 21.4143C123.052 21.4143 122.195 21.4828 121.35 21.6198C120.505 21.734 119.774 21.9053 119.158 22.1337L118.507 18.0227C118.804 17.9313 119.169 17.8399 119.603 17.7486C120.06 17.6344 120.551 17.543 121.076 17.4745C121.601 17.3832 122.15 17.3146 122.721 17.269C123.314 17.2004 123.908 17.1662 124.502 17.1662ZM144.123 23.1272L147.686 17.6458H152.962L146.795 26.3133C148.166 28.0263 149.411 29.6935 150.53 31.3151C151.649 32.9367 152.54 34.387 153.202 35.666H147.72C147.538 35.3234 147.309 34.9009 147.035 34.3984C146.761 33.8731 146.453 33.3364 146.11 32.7883C145.768 32.2173 145.402 31.6577 145.014 31.1096C144.649 30.5386 144.283 30.0247 143.918 29.5679C143.575 30.0019 143.221 30.4815 142.856 31.0068C142.513 31.5321 142.182 32.0688 141.862 32.617C141.542 33.1423 141.223 33.6676 140.903 34.1929C140.606 34.7182 140.343 35.2092 140.115 35.666H134.908C135.182 35.095 135.559 34.4213 136.038 33.6447C136.518 32.8682 137.032 32.0688 137.58 31.2466C138.151 30.4016 138.745 29.5679 139.361 28.7457C139.978 27.9007 140.583 27.1127 141.177 26.3818C140.149 24.943 139.121 23.4927 138.094 22.031C137.066 20.5464 136.05 19.0847 135.045 17.6458H140.56L144.123 23.1272Z" fill="white" fill-opacity="0.75"/>
<path d="M91.0762 13.2275L100.471 34.6394H81.681L91.0762 13.2275Z" fill="#FEBA66"/>
<path d="M102.496 13.2275L111.891 34.6394H93.1009L102.496 13.2275Z" fill="#EDA54C"/>
</svg>
