<svg width="182" height="41" viewBox="0 0 182 41" fill="none" xmlns="http://www.w3.org/2000/svg">
<path d="M90.9149 12.1204C90.8327 13.1687 90.771 14.1759 90.7299 15.142C90.7094 16.1081 90.6991 16.8481 90.6991 17.362C90.6991 17.8142 90.7094 18.2459 90.7299 18.657C90.7505 19.0681 90.771 19.4176 90.7916 19.7053H90.0824C89.7536 17.9787 89.3322 16.6117 88.8183 15.6045C88.325 14.5973 87.7289 13.8882 87.03 13.4771C86.3311 13.0454 85.5089 12.8296 84.5633 12.8296H83.8542V30.4352C83.8542 31.2574 83.9364 31.8741 84.1008 32.2852C84.2858 32.6963 84.6147 32.9738 85.0875 33.1177C85.5603 33.241 86.2489 33.313 87.1533 33.3335V33.9502C86.5161 33.9296 85.663 33.9091 84.5942 33.8885C83.5458 33.868 82.4461 33.8577 81.295 33.8577C80.1645 33.8577 79.0956 33.868 78.0884 33.8885C77.0812 33.9091 76.2692 33.9296 75.6526 33.9502V33.3335C76.5776 33.313 77.2764 33.241 77.7492 33.1177C78.222 32.9738 78.5406 32.6963 78.705 32.2852C78.8695 31.8741 78.9517 31.2574 78.9517 30.4352V12.8296H78.2734C77.3278 12.8296 76.5056 13.0454 75.8067 13.4771C75.1079 13.8882 74.5118 14.5973 74.0184 15.6045C73.5251 16.5912 73.0934 17.9581 72.7234 19.7053H72.0143C72.0554 19.4176 72.0759 19.0681 72.0759 18.657C72.0965 18.2459 72.1068 17.8142 72.1068 17.362C72.1068 16.8481 72.0862 16.1081 72.0451 15.142C72.0246 14.1759 71.9732 13.1687 71.8909 12.1204C72.8365 12.141 73.8643 12.1615 74.9742 12.1821C76.1048 12.2026 77.2353 12.2129 78.3659 12.2129C79.4964 12.2129 80.5139 12.2129 81.4184 12.2129C82.3433 12.2129 83.3608 12.2129 84.4708 12.2129C85.6014 12.2129 86.7319 12.2026 87.8625 12.1821C88.993 12.1615 90.0105 12.141 90.9149 12.1204ZM95.9277 34.166C95.0027 34.166 94.2319 33.9913 93.6152 33.6419C92.9986 33.2924 92.5464 32.8299 92.2586 32.2544C91.9708 31.6583 91.8269 31.0108 91.8269 30.3119C91.8269 29.428 92.0222 28.7086 92.4127 28.1536C92.8239 27.5986 93.348 27.1464 93.9852 26.7969C94.6224 26.4475 95.2905 26.1597 95.9894 25.9336C96.7088 25.7075 97.3871 25.4917 98.0244 25.2861C98.6821 25.06 99.2063 24.8031 99.5968 24.5153C100.008 24.207 100.214 23.8164 100.214 23.3436V20.9386C100.214 20.4042 100.121 19.9314 99.936 19.5203C99.7716 19.0887 99.5043 18.7598 99.1343 18.5337C98.7849 18.3076 98.3224 18.1945 97.7469 18.1945C97.3358 18.1945 96.9246 18.2562 96.5135 18.3795C96.1024 18.4823 95.7633 18.6673 95.496 18.9345C96.0716 19.1401 96.5135 19.4587 96.8219 19.8903C97.1508 20.3014 97.3152 20.7742 97.3152 21.3086C97.3152 22.0075 97.0685 22.5625 96.5752 22.9736C96.1024 23.3847 95.5372 23.5903 94.8794 23.5903C94.1394 23.5903 93.5741 23.3642 93.1836 22.912C92.8136 22.4392 92.6286 21.8739 92.6286 21.2161C92.6286 20.62 92.7725 20.1267 93.0602 19.7362C93.3686 19.3456 93.79 18.9756 94.3244 18.6262C94.8999 18.2973 95.5885 18.0403 96.3902 17.8553C97.2124 17.6703 98.0963 17.5778 99.0418 17.5778C99.9874 17.5778 100.84 17.6806 101.601 17.8862C102.362 18.0712 102.999 18.4206 103.513 18.9345C103.985 19.4073 104.294 19.9931 104.438 20.692C104.582 21.3703 104.653 22.2336 104.653 23.282V31.6685C104.653 32.1824 104.705 32.5422 104.808 32.7477C104.91 32.9327 105.085 33.0252 105.332 33.0252C105.517 33.0252 105.692 32.9738 105.856 32.871C106.041 32.7683 106.236 32.6449 106.442 32.501L106.75 33.0252C106.318 33.3952 105.815 33.683 105.239 33.8885C104.684 34.0735 104.057 34.166 103.358 34.166C102.598 34.166 101.992 34.0632 101.539 33.8577C101.087 33.6316 100.758 33.3335 100.553 32.9635C100.368 32.5935 100.275 32.1619 100.275 31.6685C99.7818 32.4497 99.1857 33.0663 98.4869 33.5185C97.788 33.9502 96.9349 34.166 95.9277 34.166ZM98.1169 32.1927C98.528 32.1927 98.898 32.1002 99.2268 31.9152C99.5763 31.7097 99.9052 31.3808 100.214 30.9286V24.6078C100.029 24.9161 99.7716 25.1936 99.4427 25.4403C99.1138 25.6869 98.7644 25.9439 98.3944 26.2111C98.0244 26.4578 97.6646 26.7353 97.3152 27.0436C96.9863 27.3519 96.7191 27.7322 96.5135 28.1844C96.308 28.6366 96.2052 29.1814 96.2052 29.8186C96.2052 30.6202 96.3799 31.2163 96.7294 31.6069C97.0788 31.9974 97.5413 32.1927 98.1169 32.1927ZM118.238 17.5778C118.896 17.5778 119.43 17.7217 119.841 18.0095C120.252 18.2767 120.55 18.6262 120.735 19.0578C120.941 19.4895 121.044 19.9417 121.044 20.4145C121.044 21.175 120.818 21.802 120.365 22.2953C119.934 22.7681 119.358 23.0045 118.639 23.0045C117.919 23.0045 117.354 22.8297 116.943 22.4803C116.552 22.1103 116.357 21.6273 116.357 21.0311C116.357 20.4556 116.48 19.9828 116.727 19.6128C116.994 19.2223 117.323 18.8934 117.714 18.6262C117.426 18.5439 117.138 18.5542 116.85 18.657C116.46 18.7187 116.09 18.8831 115.74 19.1503C115.391 19.397 115.093 19.7156 114.846 20.1062C114.6 20.4762 114.404 20.8873 114.26 21.3395C114.116 21.7711 114.045 22.1925 114.045 22.6036V30.7744C114.045 31.761 114.281 32.4291 114.754 32.7785C115.247 33.128 115.977 33.3027 116.943 33.3027V33.9502C116.47 33.9296 115.781 33.9091 114.877 33.8885C113.973 33.8474 113.027 33.8269 112.04 33.8269C111.218 33.8269 110.386 33.8474 109.543 33.8885C108.7 33.9091 108.063 33.9296 107.631 33.9502V33.3027C108.351 33.3027 108.854 33.1485 109.142 32.8402C109.45 32.5319 109.605 31.946 109.605 31.0827V21.3703C109.605 20.4453 109.461 19.767 109.173 19.3353C108.906 18.8831 108.392 18.657 107.631 18.657V18.0095C108.289 18.0712 108.926 18.102 109.543 18.102C110.406 18.102 111.208 18.0712 111.948 18.0095C112.708 17.9273 113.407 17.8142 114.045 17.6703V20.5378C114.291 19.9828 114.62 19.4792 115.031 19.027C115.442 18.5748 115.915 18.2253 116.45 17.9787C116.984 17.7115 117.58 17.5778 118.238 17.5778ZM128.006 39.7468C126.731 39.7468 125.59 39.6338 124.583 39.4076C123.597 39.2021 122.815 38.8732 122.24 38.421C121.685 37.9893 121.407 37.4549 121.407 36.8177C121.407 36.1805 121.695 35.6049 122.271 35.091C122.846 34.5977 123.699 34.2071 124.83 33.9194L125.107 34.4127C124.717 34.721 124.429 35.0499 124.244 35.3993C124.08 35.7693 123.997 36.1496 123.997 36.5402C123.997 37.4035 124.388 38.0613 125.169 38.5135C125.971 38.9863 127.05 39.2226 128.406 39.2226C129.331 39.2226 130.154 39.0993 130.873 38.8526C131.613 38.606 132.189 38.236 132.6 37.7427C133.031 37.2493 133.247 36.6429 133.247 35.9235C133.247 35.3068 133.021 34.7827 132.569 34.351C132.117 33.9399 131.212 33.7344 129.856 33.7344H127.944C127.101 33.7344 126.361 33.6419 125.724 33.4569C125.107 33.2719 124.624 32.9841 124.275 32.5935C123.925 32.1824 123.751 31.6685 123.751 31.0519C123.751 30.1886 124.09 29.428 124.768 28.7702C125.447 28.1125 126.454 27.4958 127.79 26.9203L128.098 27.1669C127.708 27.4136 127.338 27.6808 126.988 27.9686C126.659 28.2358 126.495 28.5852 126.495 29.0169C126.495 29.6747 126.906 30.0036 127.728 30.0036H131.089C132.219 30.0036 133.227 30.1372 134.111 30.4044C135.015 30.6716 135.724 31.1136 136.238 31.7302C136.773 32.3263 137.04 33.1074 137.04 34.0735C137.04 35.0807 136.711 36.016 136.053 36.8793C135.416 37.7427 134.429 38.4313 133.093 38.9451C131.757 39.4796 130.061 39.7468 128.006 39.7468ZM128.314 27.3828C127.142 27.3828 126.094 27.208 125.169 26.8586C124.244 26.5092 123.514 25.9747 122.98 25.2553C122.445 24.5358 122.178 23.6108 122.178 22.4803C122.178 21.3498 122.445 20.4248 122.98 19.7053C123.514 18.9653 124.244 18.4309 125.169 18.102C126.094 17.7526 127.142 17.5778 128.314 17.5778C129.486 17.5778 130.534 17.7526 131.459 18.102C132.384 18.4309 133.114 18.9653 133.648 19.7053C134.183 20.4248 134.45 21.3498 134.45 22.4803C134.45 23.6108 134.183 24.5358 133.648 25.2553C133.114 25.9747 132.384 26.5092 131.459 26.8586C130.534 27.208 129.486 27.3828 128.314 27.3828ZM128.314 26.8278C128.869 26.8278 129.301 26.5194 129.609 25.9028C129.917 25.2656 130.071 24.1247 130.071 22.4803C130.071 20.8359 129.917 19.7053 129.609 19.0887C129.301 18.4515 128.869 18.1328 128.314 18.1328C127.78 18.1328 127.348 18.4515 127.019 19.0887C126.711 19.7053 126.556 20.8359 126.556 22.4803C126.556 24.1247 126.711 25.2656 127.019 25.9028C127.348 26.5194 127.78 26.8278 128.314 26.8278ZM133.124 20.2295L132.507 20.0137C132.816 19.212 133.309 18.5439 133.987 18.0095C134.686 17.4751 135.436 17.2079 136.238 17.2079C136.896 17.2079 137.389 17.3928 137.718 17.7628C138.067 18.1123 138.242 18.5748 138.242 19.1503C138.242 19.767 138.078 20.2295 137.749 20.5378C137.42 20.8256 137.05 20.9695 136.639 20.9695C136.289 20.9695 135.961 20.8461 135.652 20.5995C135.364 20.3528 135.2 19.9828 135.159 19.4895C135.118 18.9756 135.293 18.3178 135.683 17.5162L135.899 17.7012C135.118 17.989 134.532 18.3281 134.141 18.7187C133.751 19.0887 133.412 19.5923 133.124 20.2295ZM146.54 17.5778C148.349 17.5778 149.767 18.1123 150.795 19.1812C151.822 20.25 152.336 21.9973 152.336 24.4228H142.192L142.131 23.837H148.451C148.472 22.8297 148.41 21.9048 148.266 21.062C148.122 20.1987 147.896 19.5101 147.588 18.9962C147.28 18.4823 146.869 18.2253 146.355 18.2253C145.635 18.2253 145.019 18.6776 144.505 19.582C144.011 20.4864 143.713 21.987 143.611 24.0836L143.703 24.2686C143.682 24.5153 143.662 24.7722 143.641 25.0394C143.641 25.3067 143.641 25.5842 143.641 25.8719C143.641 27.2903 143.837 28.4414 144.227 29.3252C144.638 30.2091 145.152 30.8566 145.769 31.2677C146.386 31.6583 147.012 31.8535 147.65 31.8535C148.081 31.8535 148.523 31.7919 148.975 31.6685C149.448 31.5247 149.921 31.278 150.394 30.9286C150.867 30.5586 151.309 30.0447 151.72 29.3869L152.275 29.5719C152.028 30.353 151.637 31.1136 151.103 31.8535C150.569 32.5935 149.89 33.1999 149.068 33.6727C148.246 34.1455 147.259 34.3819 146.108 34.3819C144.71 34.3819 143.477 34.0838 142.408 33.4877C141.339 32.8916 140.496 31.9872 139.88 30.7744C139.284 29.5616 138.986 28.02 138.986 26.1494C138.986 24.2378 139.304 22.6447 139.941 21.3703C140.599 20.0959 141.493 19.1503 142.624 18.5337C143.775 17.8965 145.08 17.5778 146.54 17.5778ZM160.381 12.9529V18.0095H164.019V18.6262H160.381V31.0827C160.381 31.6994 160.494 32.1413 160.72 32.4085C160.946 32.6552 161.285 32.7785 161.737 32.7785C162.107 32.7785 162.477 32.6449 162.847 32.3777C163.217 32.0899 163.546 31.6069 163.834 30.9286L164.358 31.2061C164.029 32.131 163.526 32.8916 162.847 33.4877C162.19 34.0838 161.285 34.3819 160.134 34.3819C159.456 34.3819 158.86 34.2894 158.346 34.1044C157.832 33.9399 157.4 33.683 157.051 33.3335C156.599 32.8813 156.301 32.3263 156.157 31.6685C156.013 30.9902 155.941 30.1166 155.941 29.0477V18.6262H153.351V18.0095H155.941V13.9395C156.804 13.9395 157.596 13.8676 158.315 13.7237C159.055 13.5593 159.744 13.3023 160.381 12.9529Z" fill="white" fill-opacity="0.75"/>
<rect x="34.5771" y="5.51758" width="31.975" height="31.975" rx="5.70982" fill="#FFB6D3"/>
<circle cx="50.5643" cy="21.5057" r="5.70982" fill="#FF5196"/>
<path d="M50.5644 14.1973V12.3701M50.5644 30.6416V28.8144M57.873 21.5058H59.7001M41.4287 21.5058H43.2559M50.5644 14.9281C49.2635 14.9281 47.9917 15.3139 46.91 16.0367C45.8283 16.7594 44.9853 17.7867 44.4874 18.9887C43.9896 20.1906 43.8593 21.5131 44.1131 22.7891C44.3669 24.065 44.9934 25.2371 45.9133 26.157C46.8332 27.0769 48.0052 27.7034 49.2812 27.9572C50.5571 28.211 51.8797 28.0807 53.0816 27.5829C54.2835 27.085 55.3108 26.2419 56.0336 25.1602C56.7564 24.0785 57.1421 22.8068 57.1421 21.5058C57.1421 19.7613 56.4491 18.0882 55.2156 16.8547C53.982 15.6211 52.3089 14.9281 50.5644 14.9281Z" stroke="white" stroke-opacity="0.75" stroke-width="2.28393" stroke-linecap="square" stroke-linejoin="round"/>
</svg>
