<svg width="149" height="44" viewBox="0 0 149 44" fill="none" xmlns="http://www.w3.org/2000/svg">
<path d="M30.8577 10.8039C30.6396 10.5784 30.3801 10.3997 30.0942 10.2779C29.8083 10.1561 29.5017 10.0938 29.1922 10.0945H24.4861V8.88698C24.4861 6.64526 23.6184 4.49536 22.0739 2.91022C20.5294 1.32509 18.4346 0.43457 16.2504 0.43457C14.0662 0.43457 11.9714 1.32509 10.4269 2.91022C8.8824 4.49536 8.01472 6.64526 8.01472 8.88698V10.0945H3.30862C2.68455 10.0945 2.08604 10.3489 1.64476 10.8018C1.20348 11.2547 0.955566 11.869 0.955566 12.5094V28.8105C0.955566 31.7538 3.38215 34.2442 6.24993 34.2442H26.2509C27.638 34.2447 28.9703 33.688 29.9628 32.6933C30.4623 32.2043 30.86 31.6165 31.1319 30.9654C31.4039 30.3142 31.5445 29.6133 31.5452 28.9049V12.5094C31.5462 12.1926 31.4859 11.8787 31.3679 11.586C31.2499 11.2932 31.0765 11.0274 30.8577 10.8039ZM21.8749 18.6978L15.2864 27.1502C15.1782 27.289 15.0415 27.4015 14.886 27.4798C14.7306 27.558 14.5602 27.6001 14.3871 27.603H14.368C14.198 27.603 14.0301 27.5653 13.8757 27.4923C13.7214 27.4194 13.5843 27.313 13.4738 27.1804L10.6501 23.7934C10.5497 23.6729 10.4734 23.5333 10.4255 23.3825C10.3777 23.2317 10.3593 23.0727 10.3713 22.9146C10.3833 22.7565 10.4255 22.6024 10.4956 22.4611C10.5656 22.3197 10.6621 22.1939 10.7796 22.0909C10.897 21.9878 11.033 21.9095 11.1799 21.8604C11.3269 21.8112 11.4818 21.7923 11.6358 21.8047C11.7899 21.817 11.94 21.8603 12.0777 21.9322C12.2155 22.0041 12.338 22.1032 12.4385 22.2237L14.3385 24.5021L20.0381 17.1885C20.2331 16.9383 20.517 16.7778 20.8272 16.7424C21.1375 16.7071 21.4488 16.7996 21.6926 16.9998C21.9363 17.1999 22.0927 17.4913 22.1271 17.8097C22.1616 18.1282 22.0714 18.4476 21.8764 18.6978H21.8749ZM22.133 10.0945H10.3678V8.88698C10.3678 7.28575 10.9875 5.75011 12.0908 4.61787C13.194 3.48563 14.6902 2.84954 16.2504 2.84954C17.8106 2.84954 19.3068 3.48563 20.41 4.61787C21.5133 5.75011 22.133 7.28575 22.133 8.88698V10.0945Z" fill="#6AD368"/>
<path d="M44.0066 25.8677C44.4788 26.7048 44.994 27.4347 45.5522 28.0572C46.1317 28.6798 46.765 29.1627 47.4519 29.5062C48.1389 29.8497 48.8795 30.0214 49.6737 30.0214C50.5968 30.0214 51.3481 29.7853 51.9277 29.313C52.5073 28.8408 52.7971 28.1968 52.7971 27.381C52.7971 26.6726 52.6146 26.1038 52.2497 25.6745C51.9062 25.2451 51.3803 24.8695 50.6719 24.5475C49.985 24.204 49.137 23.8391 48.1281 23.4527C47.5915 23.2595 46.9689 23.0019 46.2605 22.6799C45.5736 22.3364 44.9189 21.9071 44.2964 21.3919C43.6738 20.8552 43.1586 20.2112 42.7508 19.4599C42.3429 18.6871 42.139 17.7641 42.139 16.6907C42.139 15.4028 42.461 14.2972 43.105 13.3742C43.7704 12.4297 44.6613 11.7105 45.7775 11.2168C46.9153 10.7016 48.1818 10.444 49.5771 10.444C51.0154 10.444 52.2497 10.6909 53.2801 11.1846C54.3319 11.6569 55.2013 12.2687 55.8882 13.02C56.5966 13.7498 57.144 14.5119 57.5304 15.3062L53.9241 17.3025C53.6235 16.7659 53.2586 16.2829 52.8293 15.8536C52.4214 15.4028 51.9492 15.0486 51.4125 14.791C50.8758 14.5119 50.264 14.3724 49.5771 14.3724C48.6755 14.3724 47.9993 14.587 47.5485 15.0164C47.0977 15.4242 46.8723 15.9072 46.8723 16.4654C46.8723 17.0235 47.0548 17.5172 47.4197 17.9465C47.7847 18.3544 48.3428 18.7515 49.0941 19.1379C49.8454 19.5029 50.79 19.8785 51.9277 20.2649C52.6575 20.5225 53.3552 20.8445 54.0207 21.2309C54.7076 21.6173 55.3194 22.0896 55.856 22.6477C56.4142 23.1843 56.8435 23.8283 57.144 24.5797C57.466 25.3095 57.627 26.1574 57.627 27.1234C57.627 28.2182 57.4124 29.1949 56.983 30.0536C56.5537 30.9123 55.9634 31.6421 55.212 32.2432C54.4607 32.8228 53.6128 33.2628 52.6683 33.5634C51.7452 33.8854 50.7685 34.0464 49.7381 34.0464C48.3643 34.0464 47.0763 33.7888 45.8741 33.2736C44.6935 32.7369 43.6631 32.0178 42.783 31.1162C41.9029 30.2146 41.2159 29.2379 40.7222 28.186L44.0066 25.8677ZM63.957 28.83C63.957 29.2593 64.0644 29.635 64.279 29.957C64.4937 30.2575 64.7835 30.4937 65.1484 30.6654C65.5348 30.8157 65.9534 30.8908 66.4042 30.8908C67.0482 30.8908 67.6278 30.762 68.143 30.5044C68.6582 30.2253 69.0768 29.8389 69.3988 29.3452C69.7208 28.83 69.8818 28.2182 69.8818 27.5098L70.397 29.4418C70.397 30.3863 70.1286 31.1806 69.592 31.8246C69.0768 32.4686 68.4006 32.9516 67.5634 33.2736C66.7477 33.5956 65.889 33.7566 64.9874 33.7566C64.0644 33.7566 63.2057 33.5741 62.4114 33.2092C61.6172 32.8442 60.9732 32.3183 60.4795 31.6314C60.0072 30.923 59.7711 30.0643 59.7711 29.0554C59.7711 27.6172 60.2755 26.4794 61.2845 25.6423C62.2934 24.8051 63.7209 24.3865 65.567 24.3865C66.5115 24.3865 67.338 24.4831 68.0464 24.6763C68.7762 24.8695 69.388 25.1056 69.8818 25.3847C70.3755 25.6637 70.7297 25.932 70.9443 26.1896V28.1216C70.3648 27.6923 69.71 27.3703 68.9802 27.1556C68.2718 26.941 67.5205 26.8336 66.7262 26.8336C66.0822 26.8336 65.5563 26.9195 65.1484 27.0912C64.7405 27.2415 64.44 27.4669 64.2468 27.7674C64.0536 28.0465 63.957 28.4007 63.957 28.83ZM62.347 22.8087L60.8015 19.9751C61.5742 19.5673 62.5188 19.1809 63.635 18.8159C64.7513 18.4295 65.9963 18.2363 67.3702 18.2363C68.6367 18.2363 69.7637 18.4188 70.7512 18.7837C71.7386 19.1487 72.5114 19.6853 73.0695 20.3937C73.6277 21.0806 73.9067 21.9286 73.9067 22.9375V33.4346H69.8818V23.8069C69.8818 23.399 69.8174 23.0555 69.6886 22.7765C69.5598 22.476 69.3558 22.2291 69.0768 22.0359C68.8192 21.8427 68.5079 21.7032 68.143 21.6173C67.778 21.5314 67.3702 21.4885 66.9194 21.4885C66.2325 21.4885 65.5777 21.5636 64.9552 21.7139C64.3327 21.8642 63.796 22.0466 63.3452 22.2613C62.8944 22.476 62.5617 22.6584 62.347 22.8087ZM77.7863 8.31884H81.9722V33.4346H77.7863V8.31884ZM93.0751 33.7566C91.4651 33.7566 90.059 33.4346 88.8569 32.7906C87.6548 32.1466 86.721 31.2557 86.0555 30.118C85.4116 28.9588 85.0896 27.5957 85.0896 26.0286C85.0896 24.4401 85.4116 23.077 86.0555 21.9393C86.721 20.7801 87.6548 19.8892 88.8569 19.2667C90.059 18.6227 91.4758 18.3007 93.1073 18.3007C94.7387 18.3007 96.1233 18.6013 97.261 19.2023C98.4202 19.7819 99.3003 20.6406 99.9014 21.7783C100.502 22.8945 100.803 24.2469 100.803 25.8355C100.803 26.0286 100.792 26.2326 100.771 26.4472C100.771 26.6619 100.76 26.8336 100.739 26.9624H87.4723V24.3865H97.1L95.973 25.8677C96.0589 25.7389 96.134 25.5671 96.1984 25.3525C96.2843 25.1163 96.3272 24.9231 96.3272 24.7729C96.3272 24.043 96.1877 23.4205 95.9086 22.9053C95.651 22.3901 95.2754 21.9822 94.7817 21.6817C94.2879 21.3812 93.7083 21.2309 93.0429 21.2309C92.2271 21.2309 91.5402 21.4134 90.9821 21.7783C90.4454 22.1218 90.0268 22.6477 89.7263 23.3561C89.4472 24.043 89.297 24.9017 89.2755 25.932C89.2755 26.9195 89.415 27.7567 89.6941 28.4436C89.9946 29.1305 90.4347 29.6565 91.0143 30.0214C91.5939 30.3863 92.2915 30.5688 93.1073 30.5688C94.0303 30.5688 94.8139 30.3971 95.4578 30.0536C96.1233 29.6887 96.6707 29.152 97.1 28.4436L100.739 29.5706C99.9658 30.9659 98.9354 32.0178 97.6474 32.7262C96.3809 33.4131 94.8568 33.7566 93.0751 33.7566ZM108.038 8.31884V33.4346H103.852V8.31884H108.038ZM120.209 26.0286C120.209 27.6601 119.877 29.0554 119.211 30.2146C118.546 31.3738 117.666 32.2539 116.571 32.855C115.497 33.456 114.338 33.7566 113.093 33.7566C111.87 33.7566 110.775 33.4453 109.809 32.8228C108.864 32.2003 108.113 31.3094 107.555 30.1502C106.997 28.991 106.718 27.6172 106.718 26.0286C106.718 24.4187 106.997 23.0448 107.555 21.9071C108.113 20.7479 108.864 19.857 109.809 19.2345C110.775 18.612 111.87 18.3007 113.093 18.3007C114.338 18.3007 115.497 18.6013 116.571 19.2023C117.666 19.8034 118.546 20.6835 119.211 21.8427C119.877 22.9804 120.209 24.3757 120.209 26.0286ZM115.895 26.0286C115.895 25.1485 115.712 24.3865 115.347 23.7425C114.982 23.0985 114.489 22.6048 113.866 22.2613C113.265 21.9178 112.599 21.7461 111.87 21.7461C111.247 21.7461 110.635 21.9178 110.034 22.2613C109.455 22.5833 108.972 23.0663 108.585 23.7103C108.22 24.3543 108.038 25.1271 108.038 26.0286C108.038 26.9302 108.22 27.703 108.585 28.347C108.972 28.991 109.455 29.4847 110.034 29.8282C110.635 30.1502 111.247 30.3112 111.87 30.3112C112.599 30.3112 113.265 30.1395 113.866 29.796C114.489 29.4525 114.982 28.9588 115.347 28.3148C115.712 27.6708 115.895 26.9088 115.895 26.0286ZM123.125 12.8912C123.125 12.2043 123.372 11.6461 123.866 11.2168C124.36 10.766 124.95 10.5406 125.637 10.5406C126.324 10.5406 126.903 10.766 127.376 11.2168C127.869 11.6461 128.116 12.2043 128.116 12.8912C128.116 13.5566 127.869 14.1148 127.376 14.5656C126.903 15.0164 126.324 15.2418 125.637 15.2418C124.95 15.2418 124.36 15.0164 123.866 14.5656C123.372 14.1148 123.125 13.5566 123.125 12.8912ZM123.576 18.6227H127.633V33.4346H123.576V18.6227ZM141.624 24.4187C141.624 23.4312 141.43 22.6799 141.044 22.1647C140.658 21.6495 140.035 21.3919 139.176 21.3919C138.597 21.3919 138.082 21.5207 137.631 21.7783C137.18 22.0144 136.837 22.3579 136.6 22.8087C136.364 23.2595 136.246 23.7961 136.246 24.4187V33.4346H132.06V18.6227H136.246V20.8767C136.697 20.0395 137.287 19.4063 138.017 18.9769C138.769 18.5261 139.67 18.3007 140.722 18.3007C142.482 18.3007 143.792 18.8052 144.65 19.8141C145.509 20.8016 145.938 22.1862 145.938 23.9679V33.4346H141.624V24.4187Z" fill="white" fill-opacity="0.75"/>
</svg>
