<svg width="183" height="44" viewBox="0 0 183 44" fill="none" xmlns="http://www.w3.org/2000/svg">
<path d="M92.5324 35.7221C92.5324 35.7436 92.5324 35.7865 92.5324 35.8509C92.5324 35.8938 92.5216 35.9368 92.5002 35.9797C92.4143 36.1514 92.2426 36.2373 91.985 36.2373C91.5127 36.2373 91.0404 36.2373 90.5682 36.2373C90.1174 36.2373 89.6559 36.2373 89.1836 36.2373H87.1228C86.5218 36.2373 86.071 36.1407 85.7704 35.9475C85.4914 35.7543 85.1908 35.4216 84.8688 34.9493C83.6453 33.1891 82.4217 31.4396 81.1981 29.7008C79.9745 27.9405 78.7402 26.1803 77.4951 24.42L77.0765 24.742C77.098 26.352 77.1087 27.962 77.1087 29.572C77.1087 31.182 77.1087 32.7812 77.1087 34.3697C77.1087 34.5629 77.1517 34.7561 77.2375 34.9493C77.3449 35.121 77.5059 35.2069 77.7205 35.2069C77.9996 35.2069 78.2786 35.1962 78.5577 35.1747C78.8368 35.1532 79.1158 35.1425 79.3949 35.1425C79.5452 35.1425 79.6525 35.2069 79.7169 35.3357C79.8028 35.4645 79.8457 35.5933 79.8457 35.7221C79.8457 35.8294 79.8028 35.9582 79.7169 36.1085C79.631 36.2373 79.5237 36.3017 79.3949 36.3017C78.8797 36.3017 78.3645 36.2802 77.8493 36.2373C77.3556 36.2158 76.8619 36.2051 76.3681 36.2051C75.6383 36.2051 74.9084 36.2051 74.1786 36.2051C73.4702 36.1836 72.7618 36.1944 72.0534 36.2373C71.7743 36.2588 71.4952 36.2695 71.2162 36.2695C70.9371 36.291 70.6473 36.3017 70.3468 36.3017C70.1536 36.3017 70.0141 36.2373 69.9282 36.1085C69.8423 35.9797 69.7994 35.8294 69.7994 35.6577C69.7994 35.3142 69.9819 35.1425 70.3468 35.1425C70.6044 35.1425 70.8513 35.1532 71.0874 35.1747C71.345 35.1962 71.5918 35.2069 71.828 35.2069C72.2573 35.2069 72.5149 35.0889 72.6008 34.8527C72.6866 34.6166 72.7296 34.3268 72.7296 33.9833V15.4685C72.7296 14.7387 72.6652 14.2557 72.5364 14.0195C72.429 13.7619 72.2144 13.6331 71.8924 13.6331C71.5704 13.6117 71.0981 13.6009 70.4756 13.6009C70.3468 13.6009 70.2073 13.5687 70.057 13.5043C69.9282 13.4185 69.8638 13.3004 69.8638 13.1502C69.8638 12.9999 69.896 12.8604 69.9604 12.7316C70.0248 12.6028 70.1429 12.5384 70.3146 12.5384C70.7869 12.5384 71.2484 12.5598 71.6992 12.6028C72.1714 12.6242 72.6437 12.635 73.116 12.635C73.8673 12.635 74.6186 12.635 75.3699 12.635C76.1213 12.635 76.8619 12.635 77.5917 12.635C77.8922 12.635 78.1928 12.6242 78.4933 12.6028C78.8153 12.5598 79.1266 12.5384 79.4271 12.5384C79.5559 12.5384 79.6525 12.6028 79.7169 12.7316C79.8028 12.8389 79.8457 12.9462 79.8457 13.0536C79.8457 13.1609 79.8028 13.2789 79.7169 13.4077C79.6525 13.5365 79.5559 13.6009 79.4271 13.6009C79.148 13.6009 78.869 13.6009 78.5899 13.6009C78.3108 13.5795 78.0318 13.5687 77.7527 13.5687C77.5381 13.5687 77.3771 13.6546 77.2697 13.8263C77.1624 13.9981 77.1087 14.1805 77.1087 14.3737C77.1087 15.1465 77.098 15.9301 77.0765 16.7243C77.0765 17.4971 77.0765 18.2699 77.0765 19.0427V23.3896C78.6006 21.9299 80.0711 20.4487 81.4879 18.9461C82.9261 17.4434 84.2892 15.8657 85.5772 14.2127C85.8134 13.9337 85.9744 13.6009 86.0602 13.2145C86.1461 12.914 86.232 12.7316 86.3178 12.6672C86.4037 12.6028 86.5969 12.5706 86.8974 12.5706L87.8634 12.6028C88.3571 12.6028 88.8509 12.592 89.3446 12.5706C89.8383 12.5491 90.3321 12.5384 90.8258 12.5384C91.1907 12.5384 91.3732 12.7208 91.3732 13.0857C91.3732 13.3648 91.2873 13.5365 91.1156 13.6009C90.9438 13.6439 90.7506 13.6653 90.536 13.6653C90.1067 13.6653 89.6881 13.7619 89.2802 13.9551C88.8938 14.1269 88.5396 14.363 88.2176 14.6635L80.5541 21.9729C82.0782 24.1195 83.6345 26.2339 85.223 28.3162C86.833 30.3984 88.4537 32.4592 90.0852 34.4985C90.3857 34.8635 90.7292 35.0889 91.1156 35.1747C91.502 35.2606 91.8347 35.325 92.1138 35.3679C92.3928 35.3894 92.5324 35.5074 92.5324 35.7221ZM106.69 27.7688C106.69 27.0604 106.636 26.2554 106.529 25.3538C106.443 24.4308 106.25 23.5399 105.949 22.6812C105.649 21.8226 105.209 21.1142 104.629 20.5561C104.071 19.9765 103.309 19.6867 102.343 19.6867C101.463 19.6867 100.754 19.9657 100.218 20.5239C99.6811 21.082 99.2625 21.7797 98.962 22.6168C98.6829 23.454 98.4897 24.3234 98.3824 25.225C98.2751 26.1051 98.2214 26.8672 98.2214 27.5112C98.2214 28.2196 98.2643 29.0353 98.3502 29.9584C98.4575 30.86 98.6614 31.7401 98.962 32.5987C99.2625 33.4574 99.7026 34.1658 100.282 34.7239C100.862 35.282 101.635 35.5611 102.601 35.5611C103.502 35.5611 104.221 35.2928 104.758 34.7561C105.316 34.198 105.735 33.5111 106.014 32.6953C106.293 31.8582 106.475 30.9995 106.561 30.1194C106.647 29.2178 106.69 28.4343 106.69 27.7688ZM111.069 27.9298C111.069 29.5827 110.693 31.0532 109.942 32.3411C109.191 33.6077 108.16 34.6059 106.851 35.3357C105.563 36.0656 104.092 36.4305 102.44 36.4305C100.787 36.4305 99.3269 36.0441 98.0604 35.2713C96.7939 34.4985 95.7957 33.4574 95.0658 32.1479C94.3574 30.8385 94.0032 29.368 94.0032 27.7366C94.0032 26.0407 94.3574 24.5274 95.0658 23.1964C95.7742 21.8441 96.7724 20.7815 98.0604 20.0087C99.3484 19.2144 100.851 18.8173 102.568 18.8173C104.457 18.8173 106.024 19.2037 107.269 19.9765C108.536 20.7278 109.481 21.7904 110.103 23.1642C110.747 24.5166 111.069 26.1051 111.069 27.9298ZM124.468 34.6917C124.468 34.9923 124.307 35.2606 123.985 35.4967C123.684 35.7114 123.298 35.8938 122.826 36.0441C122.375 36.1729 121.913 36.2695 121.441 36.3339C120.969 36.3983 120.572 36.4305 120.25 36.4305C118.64 36.4305 117.523 36.1085 116.901 35.4645C116.278 34.7991 115.967 33.7043 115.967 32.1801C115.967 30.334 115.978 28.4879 115.999 26.6418C116.021 24.7957 116.032 22.9496 116.032 21.1035H114.55C114.336 21.1035 114.153 21.1786 114.003 21.3289C113.853 21.4577 113.713 21.5221 113.584 21.5221C113.37 21.5221 113.262 21.4147 113.262 21.2001C113.262 21.1142 113.305 20.9532 113.391 20.7171C113.477 20.4809 113.541 20.3307 113.584 20.2663C113.649 20.1375 113.713 20.0623 113.778 20.0409C113.842 20.0194 113.939 20.0087 114.067 20.0087H116.064V16.5633C116.6 16.2628 117.191 15.8227 117.835 15.2431C118.479 14.6635 118.972 14.1269 119.316 13.6331C119.38 13.5258 119.466 13.4185 119.574 13.3111C119.681 13.1823 119.81 13.1179 119.96 13.1179C120.303 13.1179 120.464 13.2682 120.443 13.5687L120.346 20.0087H123.663C123.835 20.0087 123.985 20.0516 124.114 20.1375C124.264 20.2019 124.339 20.3307 124.339 20.5239C124.339 20.9317 124.114 21.1357 123.663 21.1357H120.346L120.282 33.5647C120.282 33.9082 120.346 34.2409 120.475 34.5629C120.625 34.8635 120.904 35.0137 121.312 35.0137C121.677 35.0137 122.042 34.9815 122.407 34.9171C122.793 34.8527 123.148 34.7454 123.47 34.5951C123.577 34.5522 123.674 34.5093 123.759 34.4663C123.867 34.4019 123.974 34.3697 124.081 34.3697C124.339 34.3697 124.468 34.4771 124.468 34.6917ZM135.257 32.8241C135.193 31.8152 135.15 30.8063 135.128 29.7974C135.107 28.767 135.107 27.7366 135.128 26.7062C134.248 26.8565 133.389 27.1355 132.552 27.5434C131.737 27.9298 131.06 28.4557 130.524 29.1212C129.987 29.7866 129.719 30.6346 129.719 31.665C129.719 32.0943 129.772 32.5558 129.88 33.0495C130.008 33.5433 130.223 33.9619 130.524 34.3053C130.846 34.6273 131.275 34.7883 131.812 34.7883C132.198 34.7883 132.606 34.681 133.035 34.4663C133.465 34.2302 133.872 33.9619 134.259 33.6613C134.667 33.3608 134.999 33.0817 135.257 32.8241ZM141.89 34.7239C141.89 34.8098 141.847 34.9064 141.761 35.0137C141.697 35.121 141.633 35.2069 141.568 35.2713C140.903 36.0441 140.044 36.4305 138.992 36.4305C138.069 36.4305 137.329 36.2266 136.77 35.8187C136.212 35.4108 135.783 34.7776 135.482 33.9189C134.795 34.6488 134.055 35.2284 133.261 35.6577C132.488 36.087 131.576 36.3017 130.524 36.3017C129.772 36.3017 129.01 36.1407 128.238 35.8187C127.486 35.4752 126.853 34.9923 126.338 34.3697C125.844 33.7472 125.597 33.0281 125.597 32.2123C125.597 31.3966 125.801 30.6775 126.209 30.055C126.638 29.411 127.175 28.8636 127.819 28.4128C128.463 27.9405 129.118 27.5541 129.783 27.2536C130.642 26.8887 131.522 26.6096 132.423 26.4164C133.325 26.2017 134.227 25.9871 135.128 25.7724V25.6436C135.128 25.2572 135.117 24.742 135.096 24.098C135.096 23.4326 135.032 22.7778 134.903 22.1339C134.774 21.4684 134.559 20.9103 134.259 20.4595C133.958 19.9872 133.518 19.7511 132.939 19.7511C132.273 19.7511 131.672 19.9443 131.135 20.3307C130.62 20.7171 130.255 21.2323 130.041 21.8763C129.998 22.0695 129.966 22.2627 129.944 22.4559C129.923 22.6276 129.89 22.81 129.847 23.0032C129.805 23.3467 129.601 23.5828 129.236 23.7116C128.892 23.819 128.57 23.8726 128.27 23.8726C127.905 23.8726 127.551 23.7975 127.207 23.6472C126.864 23.4755 126.692 23.1642 126.692 22.7134C126.692 22.5417 126.713 22.3915 126.756 22.2627C126.821 22.1124 126.885 21.9621 126.95 21.8119C127.293 20.9961 127.808 20.3951 128.495 20.0087C129.182 19.6223 129.933 19.3647 130.749 19.2359C131.586 19.1071 132.381 19.0427 133.132 19.0427C134.892 19.0427 136.341 19.5149 137.479 20.4595C138.617 21.404 139.185 22.7993 139.185 24.6454V29.5076C139.164 30.1086 139.153 30.7312 139.153 31.3752C139.175 31.9977 139.207 32.6202 139.25 33.2427C139.293 33.6077 139.379 33.9619 139.507 34.3053C139.636 34.6273 139.926 34.7883 140.377 34.7883C140.677 34.7883 140.924 34.7239 141.117 34.5951C141.332 34.4663 141.525 34.4019 141.697 34.4019C141.783 34.4019 141.836 34.4449 141.858 34.5307C141.879 34.6166 141.89 34.681 141.89 34.7239ZM161.176 35.7543C161.176 35.926 161.112 36.0441 160.983 36.1085C160.875 36.1514 160.757 36.1836 160.629 36.2051C160.113 36.248 159.598 36.2695 159.083 36.2695C158.568 36.291 158.063 36.3017 157.57 36.3017C157.291 36.3017 156.99 36.291 156.668 36.2695C156.368 36.248 156.088 36.1944 155.831 36.1085C155.552 36.0226 155.316 35.8616 155.122 35.6255C154.929 35.3894 154.758 35.1425 154.607 34.8849C153.813 33.4896 153.008 32.105 152.192 30.7312C151.377 29.3573 150.593 27.962 149.842 26.5452L149.037 27.0926V34.4985C149.037 34.8849 149.112 35.1318 149.262 35.2391C149.434 35.3464 149.649 35.3894 149.906 35.3679C150.185 35.325 150.486 35.3035 150.808 35.3035C151.108 35.3035 151.258 35.4752 151.258 35.8187C151.258 36.1622 151.087 36.3339 150.743 36.3339C150.121 36.3339 149.498 36.3124 148.876 36.2695C148.275 36.2266 147.663 36.2051 147.04 36.2051C146.418 36.2051 145.795 36.2266 145.173 36.2695C144.55 36.3339 143.928 36.3661 143.305 36.3661C143.176 36.3661 143.069 36.3124 142.983 36.2051C142.919 36.0763 142.887 35.9475 142.887 35.8187C142.887 35.4967 143.058 35.3357 143.402 35.3357C143.616 35.3357 143.82 35.3464 144.014 35.3679C144.207 35.3679 144.411 35.3679 144.625 35.3679C144.883 35.3679 145.033 35.282 145.076 35.1103C145.119 34.9386 145.141 34.7454 145.141 34.5307C145.162 34.2302 145.173 33.9297 145.173 33.6291C145.194 33.3286 145.205 33.0388 145.205 32.7597V17.1429C145.205 16.6706 145.194 16.2091 145.173 15.7583C145.173 15.3075 145.162 14.846 145.141 14.3737C145.119 14.1376 145.076 13.88 145.012 13.6009C144.969 13.3219 144.786 13.1823 144.464 13.1823C144.25 13.1823 144.035 13.1931 143.82 13.2145C143.627 13.236 143.423 13.2467 143.209 13.2467C142.865 13.2467 142.693 13.0965 142.693 12.796C142.693 12.5813 142.811 12.4418 143.048 12.3774C143.305 12.313 143.574 12.27 143.853 12.2486C144.132 12.2271 144.4 12.1949 144.658 12.152C145.259 12.0446 145.849 11.9158 146.429 11.7656C147.03 11.6153 147.631 11.465 148.232 11.3148C148.296 11.2933 148.35 11.2826 148.393 11.2826C148.457 11.2611 148.522 11.2504 148.586 11.2504C148.908 11.2504 149.069 11.3899 149.069 11.669C149.069 14.0732 149.058 16.4774 149.037 18.8817C149.015 21.2645 149.005 23.6472 149.005 26.03C149.756 25.4504 150.518 24.8708 151.291 24.2912C152.063 23.6902 152.793 23.0569 153.48 22.3915C153.802 22.0695 154.135 21.7475 154.478 21.4255C154.822 21.082 155.122 20.7278 155.38 20.3629C155.552 20.1267 155.648 19.9013 155.67 19.6867C155.713 19.4505 155.766 19.2574 155.831 19.1071C155.917 18.9568 156.099 18.8817 156.378 18.8817C156.936 18.8817 157.494 18.8924 158.053 18.9139C158.611 18.9139 159.158 18.9139 159.695 18.9139C160.017 18.9139 160.178 19.0534 160.178 19.3325C160.178 19.5686 160.103 19.7081 159.952 19.7511C159.802 19.794 159.641 19.8155 159.469 19.8155C159.147 19.8155 158.804 19.8799 158.439 20.0087C158.096 20.1375 157.806 20.2877 157.57 20.4595C156.754 21.082 155.949 21.7367 155.155 22.4237C154.382 23.0891 153.598 23.7653 152.804 24.4522C153.019 24.8172 153.341 25.3753 153.77 26.1266C154.221 26.8779 154.725 27.7151 155.283 28.6382C155.842 29.5612 156.41 30.4628 156.99 31.343C157.57 32.2231 158.096 32.9959 158.568 33.6613C159.062 34.3053 159.448 34.7347 159.727 34.9493C159.92 35.0996 160.103 35.1962 160.274 35.2391C160.446 35.282 160.639 35.3357 160.854 35.4001C161.069 35.4645 161.176 35.5826 161.176 35.7543Z" fill="white" fill-opacity="0.75"/>
<path d="M61.3352 21.5537L51.6723 4.80469H40.7001L37.1699 10.9245H48.1381L54.27 21.5537L48.1381 32.1828H37.1699L40.7001 38.3027H51.6723L61.3352 21.5537Z" fill="#49CEA6"/>
<path d="M35.881 32.1828L29.7483 21.5537L35.881 10.9245L39.4112 4.80469H32.346L22.6831 21.5537L32.346 38.3027H39.4112L35.881 32.1828Z" fill="#9BF1D7"/>
</svg>
