<svg width="183" height="60" viewBox="0 0 183 60" fill="none" xmlns="http://www.w3.org/2000/svg">
<path d="M91.0468 48.323C92.0356 48.323 92.53 47.5107 92.53 45.8863C92.53 45.3777 92.5018 44.8763 92.4452 44.3819C92.3746 43.7462 92.3393 41.6132 92.3393 37.9829C92.3393 34.7339 92.3111 31.492 92.2545 28.2572C92.198 25.0082 92.0427 21.7593 91.7884 18.5103C91.7743 18.4256 91.7672 18.3338 91.7672 18.2349C91.7672 17.91 91.7178 17.5992 91.6189 17.3026C91.3646 16.7234 90.9479 16.4338 90.3687 16.4338C90.1286 16.4338 89.7825 16.5822 89.3305 16.8788C88.5394 17.3026 87.8614 17.8676 87.2964 18.5739C86.9291 19.0824 86.5406 19.5698 86.131 20.0359L85.3894 20.9682C85.2622 21.1378 85.1422 21.2225 85.0292 21.2225C84.9162 21.2225 84.789 21.1519 84.6478 21.0106L84.0545 20.4173C83.4612 19.8806 82.9527 19.2661 82.5289 18.5739C82.1475 17.9665 81.6531 17.4721 81.0457 17.0907C80.6784 16.8506 80.3253 16.7305 79.9862 16.7305C79.1528 16.7305 78.6867 17.239 78.5878 18.2561C78.5171 19.9512 78.4818 21.9217 78.4818 24.1678C78.4818 31.2872 78.7149 37.1353 79.1811 41.7121L79.6896 46.4584C79.7743 47.3342 80.2617 47.7791 81.1516 47.7933C81.9992 47.6944 82.4441 47.207 82.4865 46.3312C82.4865 45.7097 82.2111 42.5102 81.6602 36.7327C81.4906 34.2183 81.4059 31.2095 81.4059 27.7063C81.4059 25.4885 81.3988 23.8217 81.3847 22.7057C81.3706 22.6634 81.3635 22.5009 81.3635 22.2184C81.3776 22.1478 81.4483 22.0771 81.5754 22.0065C82.4371 22.8117 83.0374 23.4685 83.3764 23.9771C83.8567 24.6268 84.3582 24.9517 84.8808 24.9517C85.3611 24.9517 85.8555 24.6763 86.3641 24.1254C87.3246 23.0377 88.1863 22.0418 88.9491 21.1378C89.3022 25.2908 89.4788 29.0341 89.4788 32.3678C89.4223 34.2748 89.3941 36.1818 89.3941 38.0888C89.3941 40.8575 89.4576 43.6261 89.5848 46.3948C89.6695 47.5955 90.1569 48.2382 91.0468 48.323ZM98.5264 47.9416C99.4022 47.9133 99.8825 47.3554 99.9673 46.2677L99.9885 45.738C99.9885 45.3142 99.9602 44.8833 99.9037 44.4454C99.5364 39.911 99.3528 31.2024 99.3528 18.3196L99.374 18.1713C99.374 17.9453 99.3387 17.7122 99.268 17.4721C99.0985 16.7658 98.6748 16.4127 97.9967 16.4127C97.4034 16.4127 96.9726 16.6881 96.7042 17.239C96.4358 17.8606 96.3016 20.94 96.3016 26.4773C96.3016 32.2407 96.57 38.8445 97.1068 46.2889C97.2339 47.32 97.7071 47.871 98.5264 47.9416ZM107.214 47.878L107.51 47.8568C108.245 47.6732 108.612 47.1929 108.612 46.416L108.57 45.9922C108.189 43.7321 107.97 41.4578 107.913 39.1694C107.885 38.2512 107.842 37.3331 107.786 36.4149C107.687 34.9175 107.638 33.4202 107.638 31.9229L107.68 29.4014C107.68 28.2148 107.602 26.2231 107.447 23.4261C107.447 23.2001 107.496 23.0165 107.595 22.8752L108.718 24.3585C110.046 26.1524 111.43 27.8687 112.871 29.5073C113.323 30.03 113.549 30.6374 113.549 31.3296L113.655 36.1394C113.74 38.3148 113.782 40.4831 113.782 42.6444C113.782 44.3819 113.768 45.4484 113.74 45.8439C113.74 46.1547 113.789 46.4654 113.888 46.7762C114.128 47.4401 114.58 47.7721 115.244 47.7721C116.163 47.6873 116.622 47.1223 116.622 46.077C116.622 41.5426 116.579 37.6509 116.495 34.4019C116.41 31.153 116.191 27.9111 115.838 24.6763C115.838 24.6339 115.831 24.5986 115.816 24.5703C115.59 22.7057 115.477 21.2649 115.477 20.2478C115.477 19.9088 115.527 19.146 115.626 17.9594C115.626 17.578 115.499 17.2461 115.244 16.9636C115.004 16.6669 114.658 16.5186 114.206 16.5186C113.853 16.5186 113.549 16.6457 113.295 16.9C112.843 17.352 112.617 18.4468 112.617 20.1843C112.617 20.6928 112.702 21.8582 112.871 23.6804L112.956 24.867L112.786 24.9517L107.087 17.4509C106.804 17.0836 106.458 16.9 106.048 16.9C105.893 16.9 105.731 16.9212 105.561 16.9636C104.968 17.1755 104.622 17.5922 104.523 18.2137C104.48 18.6375 104.459 19.1178 104.459 19.6545C104.657 22.9317 104.756 26.5197 104.756 30.4185C104.77 34.4019 104.925 38.3784 105.222 42.3477C105.222 43.7038 105.406 45.1164 105.773 46.5855C106.041 47.4472 106.522 47.878 107.214 47.878ZM127.555 47.7721C128.53 47.6449 129.017 46.9033 129.017 45.5473L128.996 44.7845C128.869 43.612 128.805 42.4325 128.805 41.2459L128.848 37.7498C128.848 36.9587 128.784 34.07 128.657 29.0836C128.586 27.8405 128.551 26.6045 128.551 25.3755C128.551 23.6239 128.622 21.8723 128.763 20.1207C128.819 19.5839 129.01 19.3155 129.335 19.3155C130.705 19.3155 131.969 19.2237 133.128 19.0401C133.82 18.7293 134.166 18.2702 134.166 17.6628C134.166 17.465 134.124 17.2602 134.039 17.0483C133.714 16.3985 133.248 16.0736 132.64 16.0736C132.471 16.0736 132.287 16.1019 132.089 16.1584C129.985 16.3703 127.802 16.4762 125.542 16.4762C124.582 16.4762 123.6 16.455 122.597 16.4127C121.34 16.4127 120.655 16.8859 120.542 17.8323C120.542 18.8494 121.17 19.4285 122.427 19.5698C123.134 19.598 123.727 19.6122 124.207 19.6122L125.076 19.591C125.429 19.591 125.606 19.7464 125.606 20.0571L125.585 20.2266C125.457 22.1054 125.394 23.8852 125.394 25.5662C125.394 26.6822 125.422 27.7557 125.479 28.7869C125.62 32.276 125.69 35.6945 125.69 39.0423C125.676 40.4125 125.662 41.2247 125.648 41.479C125.662 43.0046 125.733 44.5373 125.86 46.077C125.916 46.6279 126.093 47.0517 126.39 47.3483C126.686 47.6308 127.075 47.7721 127.555 47.7721ZM140.014 47.9416C140.89 47.9133 141.37 47.3554 141.455 46.2677L141.476 45.738C141.476 45.3142 141.448 44.8833 141.391 44.4454C141.024 39.911 140.84 31.2024 140.84 18.3196L140.862 18.1713C140.862 17.9453 140.826 17.7122 140.756 17.4721C140.586 16.7658 140.162 16.4127 139.484 16.4127C138.891 16.4127 138.46 16.6881 138.192 17.239C137.923 17.8606 137.789 20.94 137.789 26.4773C137.789 32.2407 138.058 38.8445 138.594 46.2889C138.722 47.32 139.195 47.871 140.014 47.9416Z" fill="white" fill-opacity="0.75"/>
<path d="M45.3431 29.45C45.4577 29.3282 45.5953 29.2302 45.7479 29.1615C45.9005 29.0929 46.0651 29.0549 46.2324 29.0499C46.3996 29.0449 46.5662 29.0728 46.7226 29.1322C46.8791 29.1916 47.0223 29.2812 47.1441 29.3959C53.0066 34.9184 58.889 38.2785 65.8113 39.9911C66.7453 37.4432 66.8281 34.639 66.0215 31.9032C64.9514 28.2732 62.4593 25.1107 58.8166 22.7579C55.5648 20.6575 52.3147 20.1105 49.1705 19.5818C45.2037 18.9146 41.4567 18.284 37.8809 14.498C37.4828 14.0792 36.9406 13.9112 36.4223 14.0473C35.8299 14.2065 35.4326 14.6747 35.2423 15.4486C34.7964 17.26 35.0831 22.3367 36.3371 27.696C38.3507 36.3062 41.5642 40.6631 43.9059 42.8025C46.9315 45.5646 50.8823 47.0941 54.8084 47.0941C55.5485 47.0953 56.2876 47.041 57.0195 46.9317C60.3405 46.4285 63.105 44.7604 64.6632 42.3336C57.5379 40.48 51.4508 36.9552 45.3948 31.2535C45.2728 31.1386 45.1746 31.0007 45.106 30.8479C45.0373 30.695 44.9995 30.53 44.9947 30.3625C44.9899 30.195 45.0182 30.0281 45.078 29.8716C45.1377 29.715 45.2278 29.5717 45.3431 29.45ZM69.7136 40.7714C68.3735 40.5652 67.0757 40.3064 65.8121 39.9935C65.5523 40.7027 65.2291 41.3871 64.8463 42.0382C64.7882 42.1377 64.7269 42.2364 64.664 42.3336C66.2009 42.7314 67.7571 43.0503 69.3266 43.289C69.4936 43.3184 69.6648 43.3141 69.8301 43.2764C69.9954 43.2388 70.1516 43.1685 70.2894 43.0697C70.4272 42.9709 70.5439 42.8456 70.6326 42.7011C70.7214 42.5566 70.7804 42.3958 70.8062 42.2282C70.832 42.0607 70.8241 41.8896 70.783 41.7251C70.7418 41.5606 70.6682 41.406 70.5665 41.2703C70.4648 41.1346 70.3371 41.0206 70.1907 40.9349C70.0444 40.8493 69.8824 40.7937 69.7143 40.7714H69.7136Z" fill="#FF69B1"/>
</svg>
