<svg width="182" height="56" viewBox="0 0 182 56" fill="none" xmlns="http://www.w3.org/2000/svg">
<path d="M33.1976 14.9925C33.091 14.7367 32.9472 14.4117 32.766 14.0173C32.5954 13.6229 32.4089 13.1966 32.2064 12.7383C32.0039 12.28 31.7854 11.811 31.5509 11.3314C31.3271 10.8411 31.1139 10.3828 30.9114 9.95648C30.7089 9.51949 30.5171 9.13046 30.3359 8.78939C30.1653 8.44832 30.0268 8.18719 29.9202 8.006C29.8029 9.26369 29.707 10.628 29.6324 12.0988C29.5578 13.559 29.4939 15.0352 29.4406 16.5273H27.9217C27.9644 15.5681 28.0123 14.6035 28.0656 13.6336C28.1189 12.653 28.1775 11.6938 28.2415 10.7559C28.3161 9.80726 28.3907 8.88532 28.4653 7.99002C28.5506 7.09472 28.6412 6.24738 28.7371 5.448H30.096C30.3838 5.91697 30.6929 6.4712 31.0233 7.1107C31.3537 7.7502 31.6841 8.42168 32.0146 9.12513C32.345 9.81792 32.6647 10.516 32.9738 11.2195C33.2829 11.9123 33.5653 12.5465 33.8211 13.122C34.0769 12.5465 34.3594 11.9123 34.6685 11.2195C34.9776 10.516 35.2973 9.81792 35.6277 9.12513C35.9581 8.42168 36.2885 7.7502 36.619 7.1107C36.9494 6.4712 37.2585 5.91697 37.5462 5.448H38.9052C39.2675 9.01855 39.5393 12.7117 39.7205 16.5273H38.2017C38.1484 15.0352 38.0845 13.559 38.0099 12.0988C37.9353 10.628 37.8393 9.26369 37.7221 8.006C37.6155 8.18719 37.4716 8.44832 37.2904 8.78939C37.1199 9.13046 36.9334 9.51949 36.7309 9.95648C36.5284 10.3828 36.3099 10.8411 36.0754 11.3314C35.8516 11.811 35.6384 12.28 35.4359 12.7383C35.2334 13.1966 35.0415 13.6229 34.8603 14.0173C34.6898 14.4117 34.5512 14.7367 34.4447 14.9925H33.1976ZM49.3945 12.3706C49.3945 13.0314 49.2985 13.6283 49.1067 14.1612C48.9148 14.6941 48.6431 15.1524 48.2913 15.5361C47.9503 15.9198 47.5399 16.2183 47.0603 16.4314C46.5807 16.6339 46.0584 16.7352 45.4935 16.7352C44.9286 16.7352 44.4064 16.6339 43.9267 16.4314C43.4471 16.2183 43.0314 15.9198 42.6797 15.5361C42.3386 15.1524 42.0722 14.6941 41.8803 14.1612C41.6885 13.6283 41.5926 13.0314 41.5926 12.3706C41.5926 11.7204 41.6885 11.1289 41.8803 10.596C42.0722 10.0524 42.3386 9.58877 42.6797 9.20507C43.0314 8.82137 43.4471 8.52826 43.9267 8.32575C44.4064 8.11259 44.9286 8.006 45.4935 8.006C46.0584 8.006 46.5807 8.11259 47.0603 8.32575C47.5399 8.52826 47.9503 8.82137 48.2913 9.20507C48.6431 9.58877 48.9148 10.0524 49.1067 10.596C49.2985 11.1289 49.3945 11.7204 49.3945 12.3706ZM47.8437 12.3706C47.8437 11.4327 47.6305 10.6919 47.2042 10.1483C46.7885 9.5941 46.2183 9.31698 45.4935 9.31698C44.7687 9.31698 44.1932 9.5941 43.7669 10.1483C43.3512 10.6919 43.1434 11.4327 43.1434 12.3706C43.1434 13.3085 43.3512 14.0546 43.7669 14.6088C44.1932 15.1524 44.7687 15.4242 45.4935 15.4242C46.2183 15.4242 46.7885 15.1524 47.2042 14.6088C47.6305 14.0546 47.8437 13.3085 47.8437 12.3706ZM56.8581 9.97247C56.6769 9.82325 56.4158 9.67936 56.0747 9.5408C55.7337 9.40225 55.3606 9.33297 54.9556 9.33297C54.5293 9.33297 54.1616 9.4129 53.8525 9.57278C53.5541 9.722 53.3089 9.93516 53.1171 10.2123C52.9252 10.4787 52.7867 10.7985 52.7014 11.1715C52.6161 11.5446 52.5735 11.9443 52.5735 12.3706C52.5735 13.3405 52.8133 14.0919 53.2929 14.6248C53.7725 15.1471 54.412 15.4082 55.2114 15.4082C55.6164 15.4082 55.9522 15.3922 56.2186 15.3603C56.4958 15.3176 56.7089 15.275 56.8581 15.2324V9.97247ZM56.8581 4.37684L58.345 4.12104V16.2875C58.0039 16.3835 57.5669 16.4794 57.034 16.5753C56.5011 16.6712 55.8882 16.7192 55.1954 16.7192C54.5559 16.7192 53.9804 16.6179 53.4688 16.4154C52.9572 16.2129 52.5202 15.9251 52.1578 15.5521C51.7954 15.1791 51.513 14.7261 51.3105 14.1932C51.1186 13.6496 51.0227 13.0421 51.0227 12.3706C51.0227 11.7311 51.1026 11.1449 51.2625 10.612C51.433 10.079 51.6782 9.62074 51.9979 9.23704C52.3177 8.85334 52.7067 8.55491 53.165 8.34174C53.634 8.12857 54.1669 8.02199 54.7638 8.02199C55.2434 8.02199 55.6644 8.08594 56.0268 8.21384C56.3998 8.34174 56.6769 8.46431 56.8581 8.58155V4.37684ZM60.4372 12.3866C60.4372 11.6512 60.5438 11.0117 60.757 10.4681C60.9701 9.91385 61.2526 9.45554 61.6043 9.09315C61.956 8.73077 62.361 8.45898 62.8194 8.27779C63.2777 8.0966 63.7466 8.006 64.2263 8.006C65.3454 8.006 66.2034 8.35773 66.8002 9.06118C67.3971 9.75397 67.6955 10.8145 67.6955 12.2427C67.6955 12.3066 67.6955 12.3919 67.6955 12.4985C67.6955 12.5944 67.6902 12.685 67.6796 12.7703H61.988C62.0519 13.6336 62.3024 14.2891 62.7394 14.7367C63.1764 15.1844 63.8585 15.4082 64.7858 15.4082C65.3081 15.4082 65.7451 15.3656 66.0968 15.2803C66.4592 15.1844 66.731 15.0938 66.9122 15.0085L67.12 16.2556C66.9388 16.3515 66.619 16.4527 66.1607 16.5593C65.7131 16.6659 65.2015 16.7192 64.6259 16.7192C63.9012 16.7192 63.2723 16.6126 62.7394 16.3994C62.2172 16.1756 61.7855 15.8719 61.4444 15.4882C61.1034 15.1045 60.8476 14.6515 60.677 14.1292C60.5171 13.5963 60.4372 13.0154 60.4372 12.3866ZM66.1448 11.5712C66.1554 10.8997 65.9849 10.3508 65.6332 9.9245C65.2921 9.48751 64.8178 9.26902 64.2103 9.26902C63.8692 9.26902 63.5654 9.3383 63.299 9.47685C63.0432 9.60475 62.8247 9.77529 62.6435 9.98845C62.4623 10.2016 62.3184 10.4468 62.2118 10.7239C62.1159 11.001 62.0519 11.2834 62.02 11.5712H66.1448ZM72.901 8.03798C73.0289 8.03798 73.1728 8.04864 73.3326 8.06995C73.5032 8.08061 73.6684 8.10193 73.8282 8.1339C73.9881 8.15522 74.132 8.18187 74.2599 8.21384C74.3985 8.23516 74.4997 8.25647 74.5637 8.27779L74.3079 9.57278C74.1906 9.53015 73.9934 9.48218 73.7163 9.42889C73.4499 9.36494 73.1035 9.33297 72.6771 9.33297C72.4 9.33297 72.1229 9.36494 71.8458 9.42889C71.5793 9.48218 71.4035 9.51949 71.3182 9.5408V16.5273H69.8314V8.56557C70.1831 8.43767 70.6201 8.32042 71.1423 8.21384C71.6646 8.0966 72.2508 8.03798 72.901 8.03798ZM75.9984 8.45365C76.3395 8.36839 76.7925 8.27779 77.3574 8.18187C77.9223 8.08594 78.5724 8.03798 79.3078 8.03798C79.9687 8.03798 80.5176 8.1339 80.9546 8.32575C81.3915 8.50695 81.7379 8.76807 81.9937 9.10914C82.2602 9.43955 82.4467 9.83924 82.5533 10.3082C82.6599 10.7772 82.7132 11.2941 82.7132 11.859V16.5273H81.2263V12.1787C81.2263 11.6671 81.189 11.2302 81.1144 10.8678C81.0505 10.5054 80.9386 10.2123 80.7787 9.98845C80.6188 9.76463 80.4056 9.60475 80.1392 9.50883C79.8727 9.40225 79.5423 9.34895 79.148 9.34895C78.9881 9.34895 78.8229 9.35428 78.6524 9.36494C78.4818 9.3756 78.3166 9.39159 78.1567 9.4129C78.0075 9.42356 77.869 9.43955 77.7411 9.46087C77.6238 9.48218 77.5386 9.49817 77.4853 9.50883V16.5273H75.9984V8.45365Z" fill="white" fill-opacity="0.75"/>
<path d="M36.9913 46.2843C33.1315 46.2843 30.1852 45.2109 28.1525 43.064C26.1427 40.9171 25.1378 37.868 25.1378 33.9168C25.1378 31.9527 25.4461 30.2054 26.0627 28.6752C26.6794 27.1221 27.5245 25.8203 28.5979 24.7697C29.6714 23.6962 30.9504 22.8855 32.4349 22.3373C33.9195 21.7892 35.5296 21.5151 37.2654 21.5151C38.2703 21.5151 39.1839 21.595 40.0061 21.7549C40.8283 21.8919 41.5478 22.0632 42.1644 22.2688C42.7811 22.4515 43.295 22.6456 43.7061 22.8512C44.1172 23.0567 44.4141 23.2166 44.5968 23.3308L43.0552 27.6474C42.3243 27.2592 41.4678 26.928 40.4858 26.6539C39.5265 26.3799 38.4302 26.2428 37.1969 26.2428C36.3747 26.2428 35.5639 26.3799 34.7645 26.6539C33.988 26.928 33.2914 27.3734 32.6747 27.99C32.0809 28.5839 31.6013 29.3604 31.2358 30.3196C30.8704 31.2789 30.6877 32.4437 30.6877 33.8141C30.6877 34.9103 30.8019 35.9381 31.0303 36.8974C31.2815 37.8338 31.6698 38.6446 32.1951 39.3297C32.7432 40.0149 33.4513 40.5631 34.3191 40.9742C35.187 41.3624 36.2376 41.5566 37.471 41.5566C38.2475 41.5566 38.9441 41.5109 39.5608 41.4195C40.1774 41.3282 40.7256 41.2254 41.2052 41.1112C41.6848 40.9742 42.1073 40.8257 42.4728 40.6658C42.8382 40.506 43.1694 40.3575 43.4663 40.2205L44.9394 44.5028C44.1857 44.9596 43.1237 45.3707 41.7533 45.7362C40.383 46.1016 38.7957 46.2843 36.9913 46.2843ZM58.8978 32.3067C58.441 32.1925 57.9043 32.0783 57.2876 31.9641C56.671 31.827 56.0086 31.7585 55.3006 31.7585C54.9809 31.7585 54.5926 31.7928 54.1358 31.8613C53.7019 31.907 53.3707 31.9641 53.1423 32.0326V45.8047H48.0377V28.7437C48.9513 28.424 50.0247 28.1271 51.2581 27.853C52.5142 27.5561 53.9074 27.4076 55.4376 27.4076C55.7117 27.4076 56.0429 27.4305 56.4312 27.4762C56.8194 27.499 57.2077 27.5447 57.596 27.6132C57.9842 27.6589 58.3725 27.7274 58.7608 27.8187C59.149 27.8873 59.4802 27.9786 59.7543 28.0928L58.8978 32.3067ZM79.5602 27.7845C78.5325 31.2561 77.459 34.5107 76.3399 37.5483C75.2208 40.5859 73.9989 43.5322 72.6742 46.3871C72.1945 47.4149 71.7149 48.2828 71.2353 48.9908C70.7557 49.7216 70.2304 50.3154 69.6594 50.7722C69.0884 51.2519 68.4375 51.5944 67.7066 51.8C66.9986 52.0284 66.165 52.1426 65.2057 52.1426C64.4063 52.1426 63.6641 52.0627 62.9789 51.9028C62.3166 51.7657 61.7684 51.6059 61.3345 51.4232L62.2252 47.3463C62.7505 47.5291 63.2187 47.6547 63.6298 47.7232C64.0409 47.7917 64.4749 47.826 64.9317 47.826C65.8452 47.826 66.5418 47.5747 67.0214 47.0723C67.5239 46.5926 67.9464 45.9189 68.289 45.051C67.1242 42.7671 65.9594 40.2091 64.7946 37.377C63.6298 34.5221 62.5335 31.3246 61.5058 27.7845H66.9187C67.1471 28.6752 67.4097 29.6459 67.7066 30.6965C68.0264 31.7243 68.3575 32.7749 68.7001 33.8483C69.0427 34.8989 69.3853 35.9267 69.7279 36.9316C70.0933 37.9366 70.4359 38.8501 70.7557 39.6723C71.0526 38.8501 71.3609 37.9366 71.6807 36.9316C72.0004 35.9267 72.3087 34.8989 72.6057 33.8483C72.9254 32.7749 73.2223 31.7243 73.4964 30.6965C73.7933 29.6459 74.056 28.6752 74.2843 27.7845H79.5602ZM93.8419 36.9316C93.8419 35.3557 93.4879 34.0995 92.7799 33.1631C92.0719 32.2039 91.0213 31.7243 89.6281 31.7243C89.1713 31.7243 88.7488 31.7471 88.3605 31.7928C87.9722 31.8156 87.6525 31.8499 87.4012 31.8956V41.1112C87.721 41.3168 88.1321 41.4881 88.6346 41.6251C89.1599 41.7621 89.6852 41.8307 90.2105 41.8307C92.6314 41.8307 93.8419 40.1976 93.8419 36.9316ZM99.0493 36.7946C99.0493 38.1878 98.878 39.4554 98.5354 40.5973C98.1928 41.7393 97.6903 42.7214 97.028 43.5436C96.3657 44.3658 95.5434 45.0053 94.5614 45.4621C93.5793 45.9189 92.4487 46.1473 91.1697 46.1473C90.4617 46.1473 89.7994 46.0788 89.1827 45.9417C88.566 45.8047 87.9722 45.6106 87.4012 45.3593V52.1426H82.2967V28.4011C82.7534 28.2641 83.2787 28.1385 83.8726 28.0243C84.4664 27.8873 85.083 27.7731 85.7225 27.6817C86.3849 27.5903 87.0472 27.5218 87.7096 27.4762C88.3947 27.4076 89.0457 27.3734 89.6623 27.3734C91.1469 27.3734 92.4716 27.6018 93.6364 28.0586C94.8012 28.4925 95.7833 29.1206 96.5826 29.9428C97.382 30.7422 97.9873 31.7243 98.3984 32.8891C98.8323 34.0539 99.0493 35.3557 99.0493 36.7946ZM102.801 23.2966L107.906 22.4743V27.7845H114.038V32.0326H107.906V38.3705C107.906 39.4439 108.088 40.3004 108.454 40.9399C108.842 41.5794 109.607 41.8992 110.749 41.8992C111.297 41.8992 111.857 41.8535 112.428 41.7621C113.022 41.6479 113.558 41.4995 114.038 41.3168L114.758 45.2908C114.141 45.542 113.456 45.759 112.702 45.9417C111.948 46.1244 111.023 46.2158 109.927 46.2158C108.534 46.2158 107.38 46.0331 106.467 45.6677C105.553 45.2794 104.822 44.7541 104.274 44.0917C103.726 43.4066 103.338 42.5843 103.109 41.6251C102.904 40.6658 102.801 39.6038 102.801 38.439V23.2966ZM134.381 36.7603C134.381 38.1764 134.176 39.4782 133.765 40.6658C133.353 41.8307 132.76 42.8356 131.983 43.6806C131.207 44.5028 130.27 45.1423 129.174 45.5991C128.1 46.0559 126.89 46.2843 125.542 46.2843C124.218 46.2843 123.007 46.0559 121.911 45.5991C120.838 45.1423 119.913 44.5028 119.136 43.6806C118.359 42.8356 117.754 41.8307 117.32 40.6658C116.886 39.4782 116.669 38.1764 116.669 36.7603C116.669 35.3443 116.886 34.0539 117.32 32.8891C117.777 31.7243 118.394 30.7308 119.17 29.9085C119.97 29.0863 120.906 28.4468 121.979 27.99C123.076 27.5333 124.263 27.3049 125.542 27.3049C126.844 27.3049 128.032 27.5333 129.105 27.99C130.202 28.4468 131.138 29.0863 131.915 29.9085C132.691 30.7308 133.296 31.7243 133.73 32.8891C134.164 34.0539 134.381 35.3443 134.381 36.7603ZM129.174 36.7603C129.174 35.1844 128.854 33.9511 128.215 33.0604C127.598 32.1468 126.707 31.69 125.542 31.69C124.378 31.69 123.475 32.1468 122.836 33.0604C122.196 33.9511 121.877 35.1844 121.877 36.7603C121.877 38.3362 122.196 39.5924 122.836 40.5288C123.475 41.4424 124.378 41.8992 125.542 41.8992C126.707 41.8992 127.598 41.4424 128.215 40.5288C128.854 39.5924 129.174 38.3362 129.174 36.7603Z" fill="white" fill-opacity="0.75"/>
<path d="M153.609 49.632V34.851L142.189 24.5088V49.632H153.609Z" fill="#27CAEA"/>
<path d="M167.257 49.2736V34.7035L156.229 24.5088V49.2736H167.257Z" fill="#FFB04E"/>
</svg>
