<svg width="182" height="54" viewBox="0 0 182 54" fill="none" xmlns="http://www.w3.org/2000/svg">
<path d="M74.8653 42.0662C71.9258 42.0662 69.5954 41.2717 67.8741 39.6828C66.1793 38.0939 65.3319 35.9224 65.3319 33.1683V12.6713H71.2903V33.1285C71.2903 34.3467 71.5948 35.2868 72.2039 35.9489C72.8395 36.5844 73.7266 36.9022 74.8653 36.9022C75.9776 36.9022 76.8515 36.5844 77.487 35.9489C78.1226 35.2868 78.4404 34.3467 78.4404 33.1285V12.6713H84.3988V33.1683C84.3988 35.8959 83.5381 38.0674 81.8168 39.6828C80.122 41.2717 77.8048 42.0662 74.8653 42.0662ZM89.15 41.6689V12.6713H96.1015L103.609 35.1147C103.53 34.1349 103.437 33.0094 103.331 31.7382C103.225 30.4406 103.132 29.1563 103.053 27.8851C103 26.5875 102.974 25.4885 102.974 24.5881V12.6713H108.217V41.6689H101.265L93.8373 19.2256C93.9168 20.073 93.9962 21.0793 94.0756 22.2445C94.1551 23.4097 94.2213 24.5881 94.2743 25.7798C94.3537 26.9715 94.3934 28.0308 94.3934 28.9576V41.6689H89.15ZM113.564 41.6689V36.1078L124.21 18.2325H113.882V12.6713H131.002V18.2325L120.317 36.1078H131.439V41.6689H113.564ZM146.32 42.0662C144.387 42.0662 142.705 41.7087 141.275 40.9937C139.845 40.2522 138.733 39.2326 137.938 37.935C137.17 36.6109 136.786 35.075 136.786 33.3272V21.0131C136.786 19.2653 137.17 17.7426 137.938 16.445C138.733 15.1209 139.845 14.1013 141.275 13.3863C142.705 12.6448 144.387 12.2741 146.32 12.2741C148.279 12.2741 149.961 12.6448 151.365 13.3863C152.795 14.1013 153.894 15.1209 154.662 16.445C155.456 17.7426 155.853 19.2653 155.853 21.0131V33.3272C155.853 35.075 155.456 36.6109 154.662 37.935C153.894 39.2326 152.795 40.2522 151.365 40.9937C149.961 41.7087 148.279 42.0662 146.32 42.0662ZM146.32 36.9022C147.512 36.9022 148.399 36.5977 148.981 35.9886C149.59 35.353 149.895 34.4659 149.895 33.3272V21.0131C149.895 19.8479 149.604 18.9607 149.021 18.3517C148.438 17.7426 147.538 17.438 146.32 17.438C145.102 17.438 144.201 17.7426 143.619 18.3517C143.036 18.9607 142.745 19.8479 142.745 21.0131V33.3272C142.745 34.4659 143.036 35.353 143.619 35.9886C144.228 36.5977 145.128 36.9022 146.32 36.9022Z" fill="white" fill-opacity="0.75"/>
<path d="M40.9955 19.2767L36.8911 12.168H31.0161L40.9955 29.4528L50.9748 12.168H45.0998L40.9955 19.2767Z" fill="#FF6B62"/>
<path d="M52.3421 12.168L40.9959 31.8197L29.6497 12.168H23.2251L40.9959 42.9492L58.7667 12.168H52.3421Z" fill="#5282FF"/>
</svg>
