<svg width="182" height="44" viewBox="0 0 182 44" fill="none" xmlns="http://www.w3.org/2000/svg">
<path d="M39.0127 26.7799V0.807617H54.4637V26.7672H39.0127V26.7799ZM52.5917 20.7375L52.9891 17.8686L51.553 17.729L51.1171 19.9377C50.2195 20.382 49.1168 20.5978 47.7961 20.5978C46.0009 20.5978 44.5776 20.0393 43.539 18.9095C42.4876 17.7797 41.9747 16.2945 41.9747 14.4412C41.9747 12.6386 42.4876 11.1534 43.5005 9.98551C44.5135 8.81765 45.8471 8.23371 47.5012 8.23371C48.3474 8.23371 49.0655 8.33527 49.6425 8.52568C50.2195 8.71609 50.7452 8.96998 51.2453 9.30002L51.6684 11.4834L53.1302 11.3438L52.7071 8.4749C52.0916 7.95444 51.3607 7.53553 50.5144 7.20549C49.6681 6.88813 48.6167 6.72311 47.3729 6.72311C45.8984 6.72311 44.6289 7.07854 43.5647 7.80211C42.5004 8.52568 41.667 9.47774 41.0771 10.6583C40.4873 11.8516 40.1924 13.1337 40.1924 14.5046C40.1924 16.6753 40.872 18.4906 42.2311 19.9377C43.5903 21.3849 45.3598 22.1085 47.5524 22.1085C49.7066 22.1085 51.3864 21.6515 52.5917 20.7375Z" fill="white" fill-opacity="0.75"/>
<path d="M59.7083 26.7799V0.807617H66.3502V26.7672H59.7083V26.7799ZM60.4135 21.88H65.6578V20.5725H63.8499V6.0757H60.3878V7.3832H62.2214V20.5725H60.4135V21.88Z" fill="white" fill-opacity="0.75"/>
<path d="M71.5942 26.7799V0.807617H83.2626V26.7672H71.5942V26.7799ZM73.7099 12.4355L73.3381 14.7966L74.6844 14.9616L75.0819 13.1971C75.6589 12.9179 76.3129 12.7782 77.0822 12.7782C78.0054 12.7782 78.6338 13.0067 78.9543 13.4637C79.2749 13.9207 79.4287 14.5173 79.4287 15.2536V16.1676C79.1467 16.1422 78.8517 16.1168 78.5312 16.1041C78.2106 16.0914 77.9029 16.0787 77.5952 16.0787C76.4411 16.0787 75.3384 16.2818 74.3126 16.688C73.2868 17.0943 72.7739 17.9448 72.7739 19.2269C72.7739 20.3186 73.1201 21.0675 73.8254 21.4737C74.5306 21.8927 75.223 22.0958 75.9026 22.0958C76.736 22.0958 77.4541 21.88 78.0439 21.4484C78.6337 21.0168 79.0954 20.5344 79.4287 19.9758V20.0266C79.4544 21.4103 80.0827 22.0958 81.3136 22.0958C81.7881 22.0958 82.2368 21.9815 82.66 21.753L82.6343 20.6994C82.4292 20.7883 82.1984 20.839 81.9419 20.839C81.3521 20.839 81.0572 20.4709 81.0572 19.7346V14.8728C81.0572 12.5878 79.8262 11.4453 77.3643 11.4453C76.6847 11.4453 76.0436 11.5215 75.441 11.6738C74.8255 11.8389 74.2485 12.0927 73.7099 12.4355ZM79.4159 18.0463C79.3518 18.8841 79.0056 19.5569 78.3773 20.0393C77.749 20.5344 77.0822 20.7756 76.3642 20.7756C75.9154 20.7756 75.4795 20.6486 75.0691 20.4074C74.646 20.1662 74.4408 19.7093 74.4408 19.0492C74.4408 18.2494 74.7614 17.7417 75.3769 17.5005C76.0052 17.2593 76.6976 17.145 77.4797 17.145C77.8259 17.145 78.1593 17.1577 78.4799 17.1958C78.8004 17.2212 79.121 17.2466 79.4031 17.2593V18.0463H79.4159Z" fill="white" fill-opacity="0.75"/>
<path d="M88.5208 26.7799V0.807617H99.1249V26.7672H88.5208V26.7799ZM98.0093 18.9222C98.0093 18.1098 97.7913 17.5132 97.3554 17.1196C96.9194 16.7261 96.3937 16.4595 95.7526 16.3072C95.1114 16.1549 94.4832 16.0279 93.8549 15.9264C93.2266 15.8248 92.688 15.6598 92.2521 15.444C91.8161 15.2282 91.5981 14.8474 91.5981 14.3015C91.5981 13.7811 91.8033 13.4002 92.2264 13.1464C92.6495 12.8925 93.1753 12.7782 93.8292 12.7782C94.5857 12.7782 95.291 12.9433 95.9449 13.286L96.2014 14.9362L97.5477 14.7712L97.2913 12.3847C96.8553 12.1181 96.3296 11.9023 95.7013 11.7246C95.073 11.5469 94.4062 11.4453 93.6882 11.4453C92.7393 11.4453 91.8674 11.6738 91.0596 12.1181C90.2518 12.5624 89.8543 13.3241 89.8543 14.4158C89.8543 15.2155 90.0722 15.7994 90.5082 16.1676C90.9442 16.5484 91.4827 16.8023 92.1367 16.9546C92.7906 17.1069 93.4317 17.2339 94.0728 17.3481C94.714 17.4497 95.2525 17.6274 95.6885 17.8559C96.1244 18.0844 96.3424 18.4779 96.3424 19.0492C96.3424 19.6331 96.0603 20.0647 95.4961 20.344C94.9319 20.6232 94.2908 20.7629 93.5599 20.7629C92.7393 20.7629 91.97 20.5978 91.2647 20.2551L91.3289 18.8968L90.0338 18.7572L89.7132 21.0802C90.162 21.3722 90.7518 21.6134 91.4699 21.8038C92.1879 21.9942 92.906 22.0958 93.6369 22.0958C94.8807 22.0958 95.9193 21.8165 96.7528 21.2452C97.5862 20.6994 98.0093 19.9124 98.0093 18.9222Z" fill="white" fill-opacity="0.75"/>
<path d="M104.368 26.7799V0.807617H114.972V26.7672H104.368V26.7799ZM113.856 18.9222C113.856 18.1098 113.638 17.5132 113.202 17.1196C112.766 16.7261 112.241 16.4595 111.599 16.3072C110.958 16.1549 110.33 16.0279 109.702 15.9264C109.073 15.8248 108.535 15.6598 108.099 15.444C107.663 15.2282 107.445 14.8474 107.445 14.3015C107.445 13.7811 107.65 13.4002 108.073 13.1464C108.496 12.8925 109.022 12.7782 109.676 12.7782C110.433 12.7782 111.138 12.9433 111.792 13.286L112.048 14.9362L113.395 14.7712L113.138 12.3847C112.702 12.1181 112.176 11.9023 111.548 11.7246C110.92 11.5469 110.253 11.4453 109.535 11.4453C108.586 11.4453 107.714 11.6738 106.906 12.1181C106.099 12.5624 105.701 13.3241 105.701 14.4158C105.701 15.2155 105.919 15.7994 106.355 16.1676C106.791 16.5484 107.33 16.8023 107.984 16.9546C108.638 17.1069 109.279 17.2339 109.92 17.3481C110.561 17.4497 111.099 17.6274 111.535 17.8559C111.971 18.0844 112.189 18.4779 112.189 19.0492C112.189 19.6331 111.907 20.0647 111.343 20.344C110.779 20.6232 110.138 20.7629 109.407 20.7629C108.586 20.7629 107.817 20.5978 107.112 20.2551L107.176 18.8968L105.881 18.7572L105.56 21.0802C106.009 21.3722 106.599 21.6134 107.317 21.8038C108.035 21.9942 108.753 22.0958 109.484 22.0958C110.728 22.0958 111.766 21.8165 112.6 21.2452C113.433 20.6994 113.856 19.9124 113.856 18.9222Z" fill="white" fill-opacity="0.75"/>
<path d="M120.217 26.7799V0.807617H127.206V26.7672H120.217V26.7799ZM121.243 21.88H126.487V20.5725H124.679V11.6611H121.205V12.9686H123.064V20.5725H121.256V21.88H121.243ZM122.884 6.92621V9.02075H124.654V6.92621H122.884Z" fill="white" fill-opacity="0.75"/>
<path d="M132.448 26.7799V0.807617H143.617V26.7672H132.448V26.7799ZM142.617 18.4398L141.219 18.1352C140.911 19.8616 139.975 20.7248 138.437 20.7248C137.411 20.7248 136.629 20.382 136.09 19.6966C135.552 19.0111 135.282 18.0463 135.282 16.8277C135.282 15.7233 135.526 14.7839 136 13.9969C136.475 13.2098 137.27 12.829 138.372 12.829C139.219 12.829 139.962 13.0194 140.578 13.4002L140.975 15.1267L142.322 14.9616L141.924 12.499C141.399 12.1054 140.847 11.8262 140.27 11.6738C139.693 11.5215 139.065 11.4453 138.385 11.4453C136.782 11.4453 135.564 12.0039 134.769 13.121C133.962 14.2381 133.564 15.5075 133.564 16.9165C133.564 18.5541 133.987 19.8362 134.846 20.7375C135.693 21.6515 136.834 22.1085 138.257 22.1085C139.68 22.1085 140.732 21.7149 141.399 20.9406C142.065 20.1536 142.476 19.3284 142.617 18.4398Z" fill="white" fill-opacity="0.75"/>
<path d="M45.6939 40.9595C45.399 41.4926 44.963 41.9115 44.3988 42.2035C43.8218 42.4955 43.1422 42.6478 42.3472 42.6478H40.052V35.4883H42.3472C43.1422 35.4883 43.8346 35.6279 44.3988 35.9199C44.963 36.2118 45.399 36.6181 45.6939 37.1639C45.9888 37.7098 46.1298 38.3318 46.1298 39.068C46.1298 39.7916 45.9888 40.4263 45.6939 40.9595ZM44.4244 41.0991C44.9245 40.6167 45.1682 39.9439 45.1682 39.068C45.1682 38.1921 44.9245 37.5193 44.4244 37.037C43.9244 36.5546 43.2063 36.3134 42.2575 36.3134H40.9624V41.8227H42.2575C43.2063 41.8227 43.9244 41.5815 44.4244 41.0991Z" fill="#FF5196"/>
<path d="M50.8865 36.2372V38.6872H53.6305V39.3981H50.8865V41.8988H53.9382V42.6478H49.9504V35.4883H53.9382V36.2372H50.8865Z" fill="#FF5196"/>
<path d="M62.0426 41.7338C61.8759 42.0258 61.6322 42.267 61.2988 42.4447C60.9655 42.6224 60.5551 42.724 60.0551 42.724C59.5806 42.724 59.1447 42.6351 58.7728 42.4701C58.401 42.2924 58.1061 42.0639 57.8753 41.7592C57.6573 41.4545 57.529 41.1118 57.4906 40.731H58.4907C58.5164 40.9341 58.5805 41.1372 58.6959 41.3276C58.8113 41.518 58.9908 41.683 59.2088 41.81C59.4268 41.9369 59.696 42.0004 60.0166 42.0004C60.4269 42.0004 60.7475 41.8988 60.9655 41.6703C61.1835 41.4418 61.2988 41.1753 61.2988 40.8325C61.2988 40.5406 61.2219 40.2994 61.068 40.1216C60.9142 39.9439 60.7218 39.7916 60.5039 39.69C60.2859 39.5885 59.9653 39.4743 59.5806 39.3473C59.119 39.195 58.76 39.0553 58.4779 38.9284C58.1958 38.8015 57.965 38.5983 57.7727 38.3318C57.5803 38.0652 57.4778 37.7225 57.4778 37.2908C57.4778 36.9227 57.5675 36.5927 57.747 36.3007C57.9266 36.0214 58.183 35.7929 58.5292 35.6406C58.8626 35.4883 59.2729 35.4121 59.7217 35.4121C60.4269 35.4121 61.0039 35.5771 61.4142 35.9199C61.8374 36.2626 62.0682 36.6942 62.1451 37.2274H61.145C61.0937 36.9481 60.9398 36.6942 60.709 36.4784C60.4654 36.2626 60.1448 36.1484 59.7345 36.1484C59.3627 36.1484 59.0549 36.2499 58.837 36.4403C58.6062 36.6308 58.5036 36.91 58.5036 37.2528C58.5036 37.532 58.5805 37.7605 58.7216 37.9256C58.8754 38.1033 59.0549 38.2302 59.2729 38.3318C59.4909 38.4333 59.7986 38.5349 60.1705 38.6618C60.6321 38.8142 61.0039 38.9538 61.2988 39.0934C61.5809 39.2331 61.8246 39.4362 62.0169 39.7027C62.2092 39.9693 62.3118 40.3375 62.3118 40.7944C62.2862 41.1245 62.2092 41.4418 62.0426 41.7338Z" fill="#FF5196"/>
<path d="M67.0435 35.4883V42.6478H66.1074V35.4883H67.0435Z" fill="#FF5196"/>
<path d="M76.5051 36.0343C77.0821 36.4532 77.4667 37.0117 77.6591 37.7226H76.6718C76.5051 37.291 76.2101 36.9356 75.8126 36.6817C75.4151 36.4151 74.9407 36.2882 74.3894 36.2882C73.9021 36.2882 73.4533 36.4024 73.0686 36.6309C72.684 36.8594 72.3763 37.1768 72.1455 37.5957C71.9275 38.0146 71.8121 38.5097 71.8121 39.0809C71.8121 39.6648 71.9275 40.1726 72.1455 40.5915C72.3634 41.0104 72.684 41.3405 73.0815 41.569C73.479 41.7975 73.9406 41.9117 74.4663 41.9117C74.9151 41.9117 75.3126 41.8102 75.6844 41.6324C76.0563 41.442 76.3512 41.1627 76.5948 40.8073C76.8384 40.4519 76.9667 40.0203 77.018 39.5379H74.1714V38.8524H77.8001V39.7029C77.736 40.2742 77.5565 40.7819 77.2616 41.2516C76.9667 41.7213 76.5692 42.0767 76.0691 42.3433C75.569 42.6099 75.0048 42.7495 74.3637 42.7495C73.6713 42.7495 73.0558 42.5972 72.5173 42.2925C71.9787 41.9879 71.5684 41.5563 71.2735 40.9977C70.9786 40.4519 70.8247 39.8172 70.8247 39.1063C70.8247 38.3954 70.9786 37.7607 71.2735 37.2149C71.5684 36.669 71.9916 36.2247 72.5173 35.9201C73.043 35.6154 73.6585 35.4504 74.3509 35.4504C75.2228 35.425 75.9281 35.6281 76.5051 36.0343Z" fill="#FF5196"/>
<path d="M87.2645 42.6478H86.3285L82.5715 36.9862V42.6478H81.6355V35.4883H82.5715L86.3285 41.1499V35.4883H87.2645V42.6478Z" fill="#FF5196"/>
<path d="M100.754 41.7338C100.587 42.0258 100.343 42.267 100.01 42.4447C99.6766 42.6224 99.2664 42.724 98.7663 42.724C98.2919 42.724 97.8559 42.6351 97.484 42.4701C97.1122 42.2924 96.8173 42.0639 96.5865 41.7592C96.3685 41.4545 96.2403 41.1118 96.2018 40.731H97.2019C97.2276 40.9341 97.2917 41.1372 97.4071 41.3276C97.5225 41.518 97.702 41.683 97.92 41.81C98.1379 41.9369 98.4072 42.0004 98.7278 42.0004C99.1381 42.0004 99.4586 41.8988 99.6766 41.6703C99.8946 41.4418 100.01 41.1753 100.01 40.8325C100.01 40.5406 99.9331 40.2994 99.7792 40.1216C99.6254 39.9439 99.433 39.7916 99.215 39.69C98.9971 39.5885 98.6765 39.4743 98.2919 39.3473C97.8303 39.195 97.4712 39.0553 97.1891 38.9284C96.907 38.8015 96.6762 38.5983 96.4839 38.3318C96.2915 38.0652 96.189 37.7225 96.189 37.2908C96.189 36.9227 96.2787 36.5927 96.4582 36.3007C96.6377 36.0214 96.8942 35.7929 97.2404 35.6406C97.5738 35.4883 97.9841 35.4121 98.4329 35.4121C99.1381 35.4121 99.7151 35.5771 100.125 35.9199C100.549 36.2626 100.779 36.6942 100.856 37.2274H99.8562C99.8049 36.9481 99.651 36.6942 99.4202 36.4784C99.1765 36.2626 98.856 36.1484 98.4457 36.1484C98.0739 36.1484 97.7661 36.2499 97.5481 36.4403C97.3173 36.6308 97.2147 36.91 97.2147 37.2528C97.2147 37.532 97.2917 37.7605 97.4327 37.9256C97.5866 38.1033 97.7661 38.2302 97.9841 38.3318C98.202 38.4333 98.5098 38.5349 98.8816 38.6618C99.3432 38.8142 99.7151 38.9538 100.01 39.0934C100.292 39.2331 100.536 39.4362 100.728 39.7027C100.92 39.9693 101.023 40.3375 101.023 40.7944C100.997 41.1245 100.92 41.4418 100.754 41.7338Z" fill="#FF5196"/>
<path d="M109.254 35.4883V36.2372H107.215V42.6478H106.266V36.2372H104.227V35.4883H109.254Z" fill="#FF5196"/>
<path d="M113.615 35.4883V39.7789C113.615 40.4771 113.769 40.9976 114.09 41.3403C114.41 41.6703 114.834 41.8481 115.398 41.8481C115.949 41.8481 116.372 41.683 116.68 41.3403C116.988 40.9976 117.142 40.4898 117.142 39.7916V35.501H118.078V39.7916C118.078 40.7691 117.834 41.5053 117.347 41.9877C116.86 42.4828 116.206 42.724 115.385 42.724C114.577 42.724 113.923 42.4828 113.436 41.9877C112.949 41.4926 112.705 40.7691 112.705 39.7916V35.501H113.615V35.4883Z" fill="#FF5196"/>
<path d="M127.732 40.9595C127.437 41.4926 127.001 41.9115 126.437 42.2035C125.86 42.4955 125.181 42.6478 124.386 42.6478H122.091V35.4883H124.386C125.181 35.4883 125.873 35.6279 126.437 35.9199C127.001 36.2118 127.437 36.6181 127.732 37.1639C128.027 37.7098 128.168 38.3318 128.168 39.068C128.168 39.7916 128.027 40.4263 127.732 40.9595ZM126.476 41.0991C126.976 40.6167 127.22 39.9439 127.22 39.068C127.22 38.1921 126.976 37.5193 126.476 37.037C125.976 36.5546 125.258 36.3134 124.309 36.3134H123.014V41.8227H124.309C125.245 41.8227 125.976 41.5815 126.476 41.0991Z" fill="#FF5196"/>
<path d="M132.936 35.4883V42.6478H132V35.4883H132.936Z" fill="#FF5196"/>
<path d="M142.119 35.8691C142.658 36.1865 143.081 36.6181 143.389 37.1766C143.696 37.7351 143.85 38.3699 143.85 39.068C143.85 39.7662 143.696 40.4009 143.389 40.9595C143.081 41.518 142.658 41.9496 142.119 42.267C141.581 42.5843 140.978 42.7366 140.311 42.7366C139.644 42.7366 139.029 42.5843 138.49 42.267C137.952 41.9496 137.516 41.518 137.208 40.9595C136.9 40.4009 136.747 39.7662 136.747 39.068C136.747 38.3699 136.9 37.7351 137.208 37.1766C137.516 36.6181 137.939 36.1865 138.49 35.8691C139.042 35.5517 139.644 35.3994 140.311 35.3994C140.978 35.3994 141.581 35.5517 142.119 35.8691ZM138.965 36.6054C138.567 36.8339 138.26 37.1512 138.042 37.5828C137.824 38.0017 137.708 38.4968 137.708 39.068C137.708 39.6266 137.824 40.1216 138.042 40.5532C138.26 40.9849 138.567 41.3022 138.965 41.5307C139.362 41.7592 139.798 41.8734 140.298 41.8734C140.786 41.8734 141.234 41.7592 141.632 41.5307C142.029 41.3022 142.337 40.9722 142.555 40.5532C142.773 40.1343 142.888 39.6393 142.888 39.0807C142.888 38.5095 142.773 38.0144 142.555 37.5955C142.337 37.1766 142.029 36.8465 141.632 36.6181C141.234 36.3896 140.798 36.2753 140.298 36.2753C139.811 36.2626 139.362 36.3769 138.965 36.6054Z" fill="#FF5196"/>
</svg>
