<svg width="182" height="73" viewBox="0 0 182 73" fill="none" xmlns="http://www.w3.org/2000/svg">
<path d="M59.5125 17.5207L26.4788 33.5082V41.502H154.379V1.5332L99.3225 26.6564L59.5125 17.5207Z" fill="url(#paint0_linear_811_1109)"/>
<path d="M25.3369 33.5082L58.9606 17.2402L99.4814 26.2157L155.521 1.5332" stroke="#4C56CC" stroke-width="1.14196" stroke-linecap="round"/>
<path d="M48.5916 60.0545V49.0241H51.7414V60.2419C51.7414 61.5768 52.0342 62.533 52.6197 63.1107C53.2051 63.6806 53.9897 63.9655 54.9733 63.9655C55.9491 63.9655 56.7297 63.6806 57.3152 63.1107C57.9007 62.533 58.1934 61.5768 58.1934 60.2419V49.0241H61.3082V60.0545C61.3082 62.2169 60.7071 63.8172 59.5049 64.8554C58.3027 65.8859 56.7883 66.4011 54.9616 66.4011C53.1193 66.4011 51.597 65.8859 50.3948 64.8554C49.1926 63.8172 48.5916 62.2169 48.5916 60.0545ZM64.3527 70.9913V54.0943H67.2215L67.2801 55.5463H67.3386C67.6118 55.0623 68.0646 54.6603 68.6969 54.3402C69.3293 54.0124 70.0435 53.8484 70.8398 53.8484C72.3698 53.8484 73.5955 54.3988 74.5166 55.4995C75.4456 56.6002 75.9101 58.06 75.9101 59.8789V60.2536C75.9101 62.0647 75.4495 63.5284 74.5283 64.6447C73.615 65.7532 72.4011 66.3074 70.8866 66.3074C70.0904 66.3074 69.3917 66.1708 68.7906 65.8976C68.1973 65.6244 67.7328 65.2536 67.3972 64.7852V70.9913H64.3527ZM67.3972 62.2208C67.5923 62.6892 67.9202 63.1029 68.3808 63.462C68.8492 63.8211 69.4073 64.0006 70.0553 64.0006C70.9842 64.0006 71.6712 63.6689 72.1161 63.0053C72.5689 62.3418 72.7953 61.4636 72.7953 60.3707V59.7735C72.7953 58.6806 72.5689 57.8063 72.1161 57.1505C71.6712 56.4948 70.9803 56.1669 70.0435 56.1669C69.3878 56.1669 68.8335 56.3465 68.3808 56.7056C67.9358 57.0569 67.6079 57.4628 67.3972 57.9234V62.2208ZM83.2988 61.3426V60.9444H86.4253V61.2723C86.4253 62.1857 86.7102 62.8687 87.2801 63.3215C87.8499 63.7743 88.6462 64.0006 89.6688 64.0006C90.6915 64.0006 91.4721 63.7821 92.0108 63.3449C92.5572 62.9077 92.8304 62.3262 92.8304 61.6002C92.8304 60.9054 92.565 60.359 92.0342 59.9608C91.5111 59.5627 90.4417 59.1334 88.8257 58.6728C87.0459 58.1654 85.7266 57.5213 84.8679 56.7407C84.0092 55.9601 83.5798 54.8867 83.5798 53.5206C83.5798 52.0764 84.1146 50.9132 85.1841 50.0311C86.2613 49.149 87.7211 48.7079 89.5634 48.7079C91.3979 48.7079 92.8656 49.1568 93.9663 50.0545C95.0748 50.9522 95.629 52.1505 95.629 53.6494V54.0006H92.5377V53.7196C92.5377 52.9312 92.2879 52.3028 91.7883 51.8344C91.2887 51.3582 90.5549 51.1201 89.5869 51.1201C88.6033 51.1201 87.8773 51.3191 87.4089 51.7173C86.9483 52.1076 86.718 52.6384 86.718 53.3098C86.718 53.9421 86.9717 54.4378 87.4791 54.7969C87.9866 55.1482 89.056 55.5541 90.6876 56.0147C92.4362 56.5143 93.7516 57.17 94.6337 57.9819C95.5158 58.7938 95.9608 59.9335 95.9686 61.4011C95.9686 62.9468 95.3948 64.1685 94.2473 65.0662C93.1075 65.9561 91.5853 66.4011 89.6805 66.4011C87.7914 66.4011 86.2535 65.964 85.067 65.0896C83.8882 64.2153 83.2988 62.9663 83.2988 61.3426ZM98.2403 66.0732V48.3215H101.285V55.6517C101.652 55.1209 102.147 54.6876 102.772 54.3519C103.396 54.0163 104.138 53.8484 104.997 53.8484C106.136 53.8484 107.069 54.1997 107.795 54.9023C108.521 55.5971 108.884 56.7446 108.884 58.3449V66.0732H105.828V58.5557C105.828 57.7204 105.641 57.1271 105.266 56.7758C104.899 56.4167 104.392 56.2372 103.744 56.2372C103.174 56.2372 102.678 56.3972 102.257 56.7173C101.835 57.0295 101.515 57.4589 101.296 58.0053V66.0732H98.2403ZM111.109 60.2653V59.8906C111.109 58.0405 111.663 56.5572 112.772 55.4409C113.888 54.3168 115.356 53.7547 117.175 53.7547C118.994 53.7547 120.457 54.3168 121.566 55.4409C122.682 56.5572 123.24 58.0405 123.24 59.8906V60.2653C123.24 62.1154 122.682 63.6025 121.566 64.7266C120.457 65.843 118.994 66.4011 117.175 66.4011C115.356 66.4011 113.888 65.843 112.772 64.7266C111.663 63.6025 111.109 62.1154 111.109 60.2653ZM114.224 59.7735V60.3824C114.224 61.5143 114.474 62.4159 114.973 63.0873C115.481 63.7508 116.214 64.0826 117.175 64.0826C118.127 64.0826 118.853 63.7508 119.353 63.0873C119.86 62.4159 120.114 61.5143 120.114 60.3824V59.7735C120.114 58.6416 119.86 57.7438 119.353 57.0803C118.845 56.4167 118.119 56.085 117.175 56.085C116.222 56.085 115.492 56.4167 114.985 57.0803C114.478 57.7438 114.224 58.6416 114.224 59.7735ZM124.083 56.3543V54.0943H131.46V56.3543H124.083ZM125.992 62.654V55.1482L126.015 54.8554V50.9562H129.037V62.4667C129.037 63.0834 129.142 63.501 129.353 63.7196C129.563 63.9382 129.88 64.0475 130.301 64.0475C130.488 64.0475 130.676 64.028 130.863 63.9889C131.051 63.9499 131.238 63.8953 131.425 63.825V66.0615C131.23 66.1474 130.961 66.2255 130.617 66.2957C130.282 66.366 129.899 66.4011 129.47 66.4011C128.408 66.4011 127.561 66.1045 126.929 65.5112C126.304 64.9101 125.992 63.9577 125.992 62.654Z" fill="white" fill-opacity="0.75"/>
<defs>
<linearGradient id="paint0_linear_811_1109" x1="90.4288" y1="1.5332" x2="90.2363" y2="40.9321" gradientUnits="userSpaceOnUse">
<stop stop-color="#7782FF"/>
<stop offset="1" stop-color="#7782FF" stop-opacity="0"/>
</linearGradient>
</defs>
</svg>
