<svg width="54" height="54" viewBox="0 0 54 54" fill="none" xmlns="http://www.w3.org/2000/svg">
<rect width="54" height="54" rx="8" fill="#10130A"/>
<g clip-path="url(#clip0_698_2833)">
<path d="M27.0013 12.6074C35.0557 12.6074 41.5846 19.1364 41.5846 27.1908C41.5846 35.2451 35.0557 41.7741 27.0013 41.7741C18.9469 41.7741 12.418 35.2451 12.418 27.1908C12.418 19.1364 18.9469 12.6074 27.0013 12.6074ZM27.0013 18.4408C26.6145 18.4408 26.2436 18.5944 25.9701 18.8679C25.6966 19.1414 25.543 19.5123 25.543 19.8991V27.1908C25.5431 27.5775 25.6968 27.9484 25.9703 28.2218L30.3453 32.5968C30.6203 32.8624 30.9887 33.0094 31.3711 33.0061C31.7534 33.0028 32.1192 32.8494 32.3896 32.579C32.66 32.3086 32.8133 31.9429 32.8167 31.5605C32.82 31.1781 32.673 30.8098 32.4073 30.5347L28.4596 26.587V19.8991C28.4596 19.5123 28.306 19.1414 28.0325 18.8679C27.759 18.5944 27.3881 18.4408 27.0013 18.4408Z" fill="url(#paint0_linear_698_2833)"/>
</g>
<defs>
<linearGradient id="paint0_linear_698_2833" x1="10.883" y1="12.6074" x2="47.583" y2="10.892" gradientUnits="userSpaceOnUse">
<stop stop-color="#49D043"/>
<stop offset="1" stop-color="#FFB912"/>
</linearGradient>
<clipPath id="clip0_698_2833">
<rect width="35" height="35" fill="white" transform="translate(9.5 9.69092)"/>
</clipPath>
</defs>
</svg>
