<svg width="54" height="54" viewBox="0 0 54 54" fill="none" xmlns="http://www.w3.org/2000/svg">
<rect width="54" height="54" rx="8" fill="#10130A"/>
<g clip-path="url(#clip0_698_2845)">
<path d="M13.0859 41.0832V14.8332C13.0859 14.0311 13.3718 13.3447 13.9434 12.774C14.5151 12.2033 15.2015 11.9175 16.0026 11.9165H39.3359C40.138 11.9165 40.8249 12.2023 41.3966 12.774C41.9682 13.3457 42.2536 14.0321 42.2526 14.8332V32.3332C42.2526 33.1353 41.9673 33.8221 41.3966 34.3938C40.8259 34.9655 40.139 35.2508 39.3359 35.2498H18.9193L13.0859 41.0832ZM27.6693 30.8748C28.0825 30.8748 28.4291 30.7348 28.7091 30.4548C28.9891 30.1748 29.1286 29.8287 29.1276 29.4165C29.1266 29.0043 28.9866 28.6582 28.7076 28.3782C28.4286 28.0982 28.0825 27.9582 27.6693 27.9582C27.2561 27.9582 26.91 28.0982 26.6309 28.3782C26.3519 28.6582 26.2119 29.0043 26.2109 29.4165C26.21 29.8287 26.35 30.1753 26.6309 30.4563C26.9119 30.7373 27.258 30.8768 27.6693 30.8748ZM26.2109 25.0415H29.1276V16.2915H26.2109V25.0415Z" fill="url(#paint0_linear_698_2845)"/>
</g>
<defs>
<linearGradient id="paint0_linear_698_2845" x1="11.551" y1="11.9165" x2="48.251" y2="10.2011" gradientUnits="userSpaceOnUse">
<stop stop-color="#49D043"/>
<stop offset="1" stop-color="#FFB912"/>
</linearGradient>
<clipPath id="clip0_698_2845">
<rect width="35" height="31.1111" fill="white" transform="translate(9.90625 11.3091)"/>
</clipPath>
</defs>
</svg>
