<svg width="72" height="72" viewBox="0 0 72 72" fill="none" xmlns="http://www.w3.org/2000/svg">
<g id="Frame 427319080">
<rect width="72" height="72" rx="10.6667" fill="#10130A"/>
<path id="Vector" fill-rule="evenodd" clip-rule="evenodd" d="M42.3955 10C43.1377 10 43.8495 10.2952 44.3744 10.8206C44.8992 11.346 45.194 12.0587 45.194 12.8017V17.2397H49.056C50.5404 17.2397 51.964 17.83 53.0137 18.8809C54.0633 19.9317 54.653 21.357 54.653 22.8431V26.7132H59.2015C59.9437 26.7132 60.6555 27.0084 61.1803 27.5338C61.7052 28.0592 62 28.7719 62 29.5149C62 30.258 61.7052 30.9706 61.1803 31.4961C60.6555 32.0215 59.9437 32.3167 59.2015 32.3167H54.6493V39.5264H59.2015C59.9437 39.5264 60.6555 39.8216 61.1803 40.347C61.7052 40.8725 62 41.5851 62 42.3282C62 43.0712 61.7052 43.7839 61.1803 44.3093C60.6555 44.8347 59.9437 45.1299 59.2015 45.1299H54.6493V48.9888C54.6493 50.4749 54.0596 51.9002 53.0099 52.951C51.9603 54.0019 50.5367 54.5922 49.0522 54.5922H45.1978V59.1983C45.1978 59.9413 44.9029 60.654 44.3781 61.1794C43.8533 61.7048 43.1415 62 42.3993 62C41.657 62 40.9452 61.7048 40.4204 61.1794C39.8956 60.654 39.6007 59.9413 39.6007 59.1983V54.5922H32.3993V59.1983C32.3993 59.9413 32.1044 60.654 31.5796 61.1794C31.0548 61.7048 30.343 62 29.6007 62C28.8585 62 28.1467 61.7048 27.6219 61.1794C27.0971 60.654 26.8022 59.9413 26.8022 59.1983V54.5922H22.9403C21.4559 54.5922 20.0323 54.0019 18.9826 52.951C17.933 51.9002 17.3433 50.4749 17.3433 48.9888V45.1261H12.7985C12.0563 45.1261 11.3445 44.831 10.8197 44.3055C10.2948 43.7801 10 43.0675 10 42.3244C10 41.5814 10.2948 40.8687 10.8197 40.3433C11.3445 39.8179 12.0563 39.5227 12.7985 39.5227H17.3433V32.3129H12.7985C12.0563 32.3129 11.3445 32.0178 10.8197 31.4923C10.2948 30.9669 10 30.2543 10 29.5112C10 28.7681 10.2948 28.0555 10.8197 27.5301C11.3445 27.0047 12.0563 26.7095 12.7985 26.7095H17.3433V22.8468C17.3433 21.3607 17.933 19.9355 18.9826 18.8846C20.0323 17.8338 21.4559 17.2434 22.9403 17.2434H26.8022V12.8017C26.8022 12.0587 27.0971 11.346 27.6219 10.8206C28.1467 10.2952 28.8585 10 29.6007 10C30.343 10 31.0548 10.2952 31.5796 10.8206C32.1044 11.346 32.3993 12.0587 32.3993 12.8017V17.2397H39.6007V12.8017C39.6007 12.0587 39.8956 11.346 40.4204 10.8206C40.9452 10.2952 41.657 10 42.3993 10H42.3955ZM33.1754 26.9149C33.8321 23.9115 38.1007 23.8928 38.7836 26.8925L38.8134 27.0233L38.8731 27.2848C39.2238 28.7779 40.0049 30.1351 41.1193 31.1877C42.2338 32.2403 43.6325 32.942 45.1418 33.2057C48.2761 33.7511 48.2761 38.2489 45.1418 38.7943C43.6236 39.0597 42.2177 39.7683 41.1004 40.831C39.9831 41.8937 39.2044 43.2632 38.8619 44.7675L38.7836 45.1075C38.1007 48.1072 33.8321 48.0848 33.1754 45.0851L33.1082 44.7899C32.7783 43.2808 32.0069 41.9043 30.8924 40.8358C29.778 39.7673 28.371 39.0553 26.8507 38.7905C23.7239 38.2451 23.7239 33.7549 26.8507 33.2095C28.3657 32.9454 29.7683 32.2372 30.8809 31.1746C31.9935 30.1119 32.7661 28.7425 33.1007 27.2399L33.1493 27.027L33.1754 26.9149Z" fill="url(#paint0_linear_698_2979)"/>
</g>
<defs>
<linearGradient id="paint0_linear_698_2979" x1="7.26334" y1="10" x2="72.6942" y2="6.94163" gradientUnits="userSpaceOnUse">
<stop stop-color="#49D043"/>
<stop offset="1" stop-color="#FFB912"/>
</linearGradient>
</defs>
</svg>
