<svg width="73" height="72" viewBox="0 0 73 72" fill="none" xmlns="http://www.w3.org/2000/svg">
<rect x="0.621094" width="72" height="72" rx="10.6667" fill="#10130A"/>
<path d="M36.1195 46.9748C34.8374 46.9751 33.6022 46.4924 32.6599 45.6229C31.7176 44.7534 31.1374 43.5609 31.0348 42.2828C27.6336 41.0789 24.7671 38.7121 22.9412 35.6002C21.1153 32.4883 20.4475 28.8314 21.0557 25.275C21.6639 21.7186 23.509 18.4914 26.2652 16.1631C29.0214 13.8348 32.5115 12.5551 36.1195 12.5498C39.957 12.5492 43.6546 13.9908 46.4791 16.5886C49.3036 19.1863 51.0487 22.7507 51.3685 26.5748C51.3792 26.7407 51.3552 26.907 51.2982 27.0631C51.2411 27.2192 51.1522 27.3617 51.0371 27.4816C50.922 27.6015 50.7832 27.6962 50.6295 27.7596C50.4759 27.823 50.3107 27.8537 50.1445 27.8498C49.803 27.8412 49.4768 27.706 49.2294 27.4704C48.982 27.2347 48.831 26.9155 48.8058 26.5748C48.5787 24.3202 47.7548 22.1668 46.4189 20.3364C45.0831 18.506 43.2835 17.0647 41.2056 16.1608C39.1276 15.257 36.8463 14.9232 34.5965 15.194C32.3467 15.4648 30.2097 16.3302 28.4055 17.7013C26.6014 19.0724 25.1952 20.8995 24.3318 22.9946C23.4684 25.0897 23.1789 27.377 23.4932 29.6212C23.8075 31.8653 24.7143 33.9851 26.12 35.7624C27.5258 37.5396 29.3799 38.9102 31.4913 39.7328C31.8755 38.9027 32.4759 38.1911 33.2295 37.6727C33.9832 37.1544 34.8625 36.8483 35.7751 36.7865C36.6878 36.7247 37.6002 36.9095 38.4169 37.3215C39.2336 37.7335 39.9244 38.3576 40.417 39.1284C40.9096 39.8992 41.1858 40.7883 41.2167 41.7025C41.2476 42.6167 41.0321 43.5224 40.5927 44.3247C40.1533 45.127 39.5062 45.7963 38.7192 46.2626C37.9322 46.7288 37.0343 46.9748 36.1195 46.9748ZM23.3925 40.5998H23.6245C25.1299 42.0766 26.8851 43.2749 28.8087 44.1392C29.374 46.0044 30.6299 47.5835 32.3199 48.5541C34.01 49.5247 36.0068 49.8137 37.9027 49.362C39.7986 48.9103 41.4507 47.752 42.5215 46.1236C43.5924 44.4952 44.0014 42.5195 43.665 40.5998H48.8695C50.2221 40.5998 51.5193 41.1371 52.4758 42.0936C53.4322 43.05 53.9695 44.3472 53.9695 45.6998C53.9695 50.0119 51.8454 53.2631 48.5253 55.3822C45.2562 57.4655 40.8498 58.4498 36.1195 58.4498C31.3893 58.4498 26.9829 57.4655 23.7138 55.3822C20.3937 53.2657 18.2695 50.0093 18.2695 45.6998C18.2695 42.8617 20.5722 40.5998 23.3925 40.5998ZM46.3195 27.8498C46.3201 29.5752 45.8829 31.2726 45.049 32.7831C44.215 34.2936 43.0115 35.5679 41.551 36.4867C40.8398 35.7698 39.9936 35.2009 39.0614 34.8127C38.1292 34.4245 37.1294 34.2247 36.1195 34.2248C35.1097 34.2247 34.1099 34.4245 33.1776 34.8127C32.2454 35.2009 31.3993 35.7698 30.688 36.4867C28.7511 35.2686 27.28 33.4346 26.5111 31.2796C26.1189 30.1786 25.9188 29.0185 25.9195 27.8498C25.9195 25.1446 26.9942 22.5502 28.907 20.6373C30.8199 18.7244 33.4143 17.6498 36.1195 17.6498C38.8247 17.6498 41.4191 18.7244 43.332 20.6373C45.2449 22.5502 46.3195 25.1446 46.3195 27.8498Z" fill="url(#paint0_linear_698_2991)"/>
<defs>
<linearGradient id="paint0_linear_698_2991" x1="18.2695" y1="35.4998" x2="53.9695" y2="35.4998" gradientUnits="userSpaceOnUse">
<stop stop-color="#49D043"/>
<stop offset="1" stop-color="#FFA239"/>
</linearGradient>
</defs>
</svg>
