<svg width="73" height="72" viewBox="0 0 73 72" fill="none" xmlns="http://www.w3.org/2000/svg">
<rect x="0.816406" width="72" height="72" rx="10.6667" fill="#10130A"/>
<g clip-path="url(#clip0_698_3001)">
<path d="M31.8826 45.0416L39.0234 48.9366V53.5833H27.0651C25.1689 53.5833 23.6484 52.0629 23.6484 50.1666V22.8333C23.6484 21.9271 24.0084 21.0581 24.6492 20.4173C25.2899 19.7766 26.1589 19.4166 27.0651 19.4166H28.7734V31.375L33.0443 28.8125L37.3151 31.375V19.4166H47.5651C48.4713 19.4166 49.3403 19.7766 49.9811 20.4173C50.6218 21.0581 50.9818 21.9271 50.9818 22.8333V37.4225L48.4193 36.0216L31.8826 45.0416ZM57.8151 45.0416L48.4193 39.9166L39.0234 45.0416L48.4193 50.1666L57.8151 45.0416ZM42.4401 48.612V52.0287L48.4193 55.2916L54.3984 52.0287V48.612L48.4193 51.875L42.4401 48.612Z" fill="url(#paint0_linear_698_3001)"/>
</g>
<defs>
<linearGradient id="paint0_linear_698_3001" x1="23.6484" y1="37.3541" x2="57.8151" y2="37.3541" gradientUnits="userSpaceOnUse">
<stop stop-color="#49D043"/>
<stop offset="1" stop-color="#FFA239"/>
</linearGradient>
<clipPath id="clip0_698_3001">
<rect width="41" height="41" fill="white" transform="translate(16.8164 16)"/>
</clipPath>
</defs>
</svg>
