<svg width="72" height="72" viewBox="0 0 72 72" fill="none" xmlns="http://www.w3.org/2000/svg">
<rect width="72" height="72" rx="10.6667" fill="#10130A"/>
<g clip-path="url(#clip0_698_2983)">
<path d="M26.0735 33.6112L24.7031 37.8594H27.4439L26.0735 33.6112Z" fill="url(#paint0_linear_698_2983)"/>
<path d="M21.9068 25.5116H14.7731C13.9534 25.5116 13.1337 26.2334 13.2445 27.4064L16.7005 49.9418C16.7005 49.9418 20.7991 33.3392 21.5966 29.3464C21.8403 28.1509 22.948 27.7674 23.7677 27.7674H35.1993C35.1993 27.7674 33.6485 23.0753 33.4935 22.5565C33.2276 21.5639 32.7402 21 31.7654 21H24.4324C23.6348 21 22.8816 21.5188 22.66 22.4437C22.4606 23.346 21.9068 25.5116 21.9068 25.5116ZM32.7181 25.5116H23.8564C23.8564 25.5116 24.7868 23.2558 25.7838 23.2558H30.5026C31.566 23.2558 32.7181 25.5116 32.7181 25.5116ZM18.9603 50.8892C18.2735 51.9494 17.2765 52.5811 16.1688 52.5811H51.0175C52.2138 52.5811 53.0556 51.8818 53.2993 50.7087C54.2741 45.7686 57.0213 31.6699 57.0213 31.6699C57.1763 30.542 56.3566 30.0232 55.6477 30.0232H48.4919V26.7071C48.4919 26.3462 47.9159 25.5116 47.0297 25.5116H38.6997C37.5477 25.5116 36.7723 26.8199 36.7723 26.8199L35.1993 30.0232H25.4293C24.7204 30.0232 24.0336 30.4518 23.9007 31.1511C23.9007 31.1511 20.3781 46.2648 20.0901 47.686C19.9351 48.5206 19.6027 49.9192 18.9603 50.8892ZM47.1183 30.0232H37.4148C37.4148 30.0232 38.6997 27.7674 39.9182 27.7674H44.9915C46.5645 27.7674 47.1183 30.0232 47.1183 30.0232Z" fill="url(#paint1_linear_698_2983)"/>
</g>
<defs>
<linearGradient id="paint0_linear_698_2983" x1="24.5589" y1="33.6112" x2="28.0119" y2="33.5071" gradientUnits="userSpaceOnUse">
<stop stop-color="#49D043"/>
<stop offset="1" stop-color="#FFB912"/>
</linearGradient>
<linearGradient id="paint1_linear_698_2983" x1="10.9289" y1="21" x2="65.9386" y2="17.4334" gradientUnits="userSpaceOnUse">
<stop stop-color="#49D043"/>
<stop offset="1" stop-color="#FFB912"/>
</linearGradient>
<clipPath id="clip0_698_2983">
<rect width="49.3334" height="49.3334" fill="white" transform="translate(11 11)"/>
</clipPath>
</defs>
</svg>
