<svg width="73" height="72" viewBox="0 0 73 72" fill="none" xmlns="http://www.w3.org/2000/svg">
<rect x="0.621094" width="72" height="72" rx="10.6667" fill="#10130A"/>
<path d="M20.9068 15H52.3354C55.8019 15 58.6211 17.8977 58.6211 21.4608V40.8434C58.6211 44.4065 55.8019 47.3042 52.3354 47.3042H32.284C33.6412 46.1034 34.731 44.6163 35.4793 42.9441C36.2277 41.2719 36.6171 39.4536 36.6211 37.613C36.6171 35.7723 36.2277 33.9541 35.4793 32.2818C34.731 30.6096 33.6412 29.1225 32.284 27.9217H47.6211C48.0379 27.9217 48.4376 27.7515 48.7323 27.4486C49.027 27.1457 49.1925 26.7349 49.1925 26.3065C49.1925 25.8781 49.027 25.4673 48.7323 25.1644C48.4376 24.8614 48.0379 24.6913 47.6211 24.6913H24.0497C22.2589 24.6953 20.4899 25.0956 18.863 25.8648C17.2361 26.6341 15.7894 27.7542 14.6211 29.1493V21.4608C14.6211 17.8977 17.4402 15 20.9068 15ZM41.3354 37.613H47.6211C48.0379 37.613 48.4376 37.4428 48.7323 37.1399C49.027 36.837 49.1925 36.4261 49.1925 35.9977C49.1925 35.5694 49.027 35.1585 48.7323 34.8556C48.4376 34.5527 48.0379 34.3825 47.6211 34.3825H41.3354C40.9186 34.3825 40.5189 34.5527 40.2242 34.8556C39.9295 35.1585 39.764 35.5694 39.764 35.9977C39.764 36.4261 39.9295 36.837 40.2242 37.1399C40.5189 37.4428 40.9186 37.613 41.3354 37.613ZM24.0497 47.3042C26.5503 47.3042 28.9485 46.2832 30.7167 44.4657C32.4849 42.6483 33.4782 40.1832 33.4782 37.613C33.4782 35.0427 32.4849 32.5777 30.7167 30.7602C28.9485 28.9427 26.5503 27.9217 24.0497 27.9217C21.5491 27.9217 19.1509 28.9427 17.3827 30.7602C15.6145 32.5777 14.6211 35.0427 14.6211 37.613C14.6211 40.1832 15.6145 42.6483 17.3827 44.4657C19.1509 46.2832 21.5491 47.3042 24.0497 47.3042ZM17.764 55.3803V48.7353C19.6665 49.8979 21.8363 50.5179 24.0497 50.5314C26.3502 50.5314 28.478 49.8466 30.3354 48.7353V55.3771C30.3355 55.6695 30.2584 55.9564 30.1122 56.2073C29.9661 56.4582 29.7565 56.6637 29.5057 56.8017C29.2552 56.9398 28.973 57.0056 28.6891 56.9919C28.4052 56.9783 28.1302 56.8857 27.8934 56.7241L24.0497 54.0881L20.206 56.7209C19.9703 56.8861 19.695 56.9818 19.4102 56.9977C19.1253 57.0135 18.8416 56.9488 18.59 56.8107C18.3384 56.6725 18.1283 56.4662 17.9827 56.214C17.8371 55.9618 17.7614 55.6735 17.764 55.3803Z" fill="url(#paint0_linear_698_2996)"/>
<defs>
<linearGradient id="paint0_linear_698_2996" x1="12.3055" y1="15" x2="67.6583" y2="12.2895" gradientUnits="userSpaceOnUse">
<stop stop-color="#49D043"/>
<stop offset="1" stop-color="#FFB912"/>
</linearGradient>
</defs>
</svg>
