<svg width="73" height="72" viewBox="0 0 73 72" fill="none" xmlns="http://www.w3.org/2000/svg">
<rect x="0.816406" width="72" height="72" rx="10.6667" fill="#10130A"/>
<path d="M35.8776 12.1263L24.0098 18.2747C23.6666 18.4525 23.8668 18.6348 24.0098 18.7037L28.5853 21.1344C29.1573 19.5139 31.5022 16.2729 36.3066 16.2729C41.1109 16.2729 43.4558 19.5139 44.0278 21.1344L45.1717 20.5625C45.124 22.7073 45.0573 27.1398 45.1717 27.7118C45.2861 28.2837 45.9819 28.7127 46.3156 28.8557V27.9977C46.6492 28.0454 47.2307 28.0549 46.8875 27.7118C46.5443 27.3686 46.5539 26.6155 46.6015 26.2819V19.2756C46.9828 19.0373 47.8884 18.5035 48.4603 18.2747C49.1467 18.2747 48.7463 17.9887 48.4603 17.8458C45.0287 16.0823 37.9652 12.4695 37.1645 12.1263C36.4781 11.8975 36.0206 12.031 35.8776 12.1263Z" fill="url(#paint0_linear_698_3006)"/>
<path d="M49.3058 57.3102H23.5781V59.026C23.5781 59.4836 23.8656 59.598 24.0093 59.598H48.4434C49.2483 59.598 49.3537 59.2167 49.3058 59.026V57.3102Z" fill="url(#paint1_linear_698_3006)"/>
<path d="M43.7414 34.0034H29.2998C27.1264 34.0034 26.0112 34.9567 25.7253 35.4333C22.8655 39.3892 16.6313 48.0732 14.5723 51.1617C12.5134 54.2502 15.1443 56.4522 16.7171 57.1671H23.5804V41.2957C23.466 40.9525 24.0093 40.6761 24.2953 40.5808H48.4599C49.1462 40.5808 49.3178 41.0574 49.3178 41.2957V57.1671H56.1811C60.0703 56.252 59.1362 52.6869 58.1829 51.0187C55.0849 46.5862 48.6315 37.3779 47.602 36.0052C46.5725 34.6326 44.5993 34.0987 43.7414 34.0034Z" fill="url(#paint2_linear_698_3006)"/>
<ellipse cx="36.4501" cy="24.9949" rx="7.14928" ry="7.14928" fill="url(#paint3_linear_698_3006)"/>
<circle cx="36.4496" cy="49.3025" r="2.85971" fill="url(#paint4_linear_698_3006)"/>
<defs>
<linearGradient id="paint0_linear_698_3006" x1="22.5036" y1="12" x2="53.9023" y2="9.82157" gradientUnits="userSpaceOnUse">
<stop stop-color="#49D043"/>
<stop offset="1" stop-color="#FFB912"/>
</linearGradient>
<linearGradient id="paint1_linear_698_3006" x1="22.2236" y1="57.3102" x2="47.6489" y2="43.9404" gradientUnits="userSpaceOnUse">
<stop stop-color="#49D043"/>
<stop offset="1" stop-color="#FFB912"/>
</linearGradient>
<linearGradient id="paint2_linear_698_3006" x1="11.4374" y1="34.0034" x2="67.9714" y2="28.8465" gradientUnits="userSpaceOnUse">
<stop stop-color="#49D043"/>
<stop offset="1" stop-color="#FFB912"/>
</linearGradient>
<linearGradient id="paint3_linear_698_3006" x1="28.5483" y1="17.8456" x2="46.54" y2="17.0046" gradientUnits="userSpaceOnUse">
<stop stop-color="#49D043"/>
<stop offset="1" stop-color="#FFB912"/>
</linearGradient>
<linearGradient id="paint4_linear_698_3006" x1="33.2888" y1="46.4427" x2="40.4855" y2="46.1064" gradientUnits="userSpaceOnUse">
<stop stop-color="#49D043"/>
<stop offset="1" stop-color="#FFB912"/>
</linearGradient>
</defs>
</svg>
