<svg width="50" height="50" viewBox="0 0 50 50" fill="none" xmlns="http://www.w3.org/2000/svg">
<rect width="50" height="50" rx="8" fill="#10130A"/>
<g clip-path="url(#clip0_698_2957)">
<path d="M32.447 29.5946C32.4507 30.9652 32.1589 32.3205 31.5916 33.5682C31.0244 34.8159 30.1949 35.9267 29.1598 36.825C28.4814 37.4212 28.946 38.5372 29.8494 38.4472C30.4535 38.3885 31.051 38.2755 31.6348 38.1097C33.2024 37.6677 34.6275 36.8242 35.7693 35.6627C36.9111 34.5012 37.73 33.0618 38.1452 31.4869C38.54 30.0568 38.599 28.5549 38.3173 27.0983C38.0357 25.6417 37.4212 24.27 36.5218 23.0902C35.6223 21.9104 34.4623 20.9545 33.1324 20.2972C31.8024 19.6398 30.3385 19.2989 28.8549 19.3009C28.4621 19.3005 28.0695 19.3231 27.6793 19.3684C26.786 19.4809 26.5599 20.6745 27.353 21.1031C30.3917 22.7366 32.4493 25.9237 32.4493 29.5946H32.447ZM20.3927 32.4217C19.0192 32.4259 17.6608 32.1355 16.4091 31.5702C15.1574 31.0049 14.0414 30.1778 13.1364 29.1446C12.5379 28.4696 11.4185 28.9309 11.5097 29.8309C11.5688 30.433 11.6817 31.0286 11.8472 31.6106C12.7404 34.7865 15.2942 37.2649 18.4925 38.0974C24.9354 39.7759 30.7213 34.9777 30.7213 28.8397C30.7213 28.446 30.6988 28.0522 30.6538 27.6697C30.5413 26.7787 29.3432 26.5537 28.9134 27.3435C28.0837 28.8802 26.8535 30.1636 25.3534 31.0577C23.8532 31.9517 22.139 32.4231 20.3927 32.4217ZM17.5532 20.4056C17.5498 19.0349 17.8419 17.6795 18.4096 16.4318C18.9772 15.1841 19.8071 14.0733 20.8427 13.1752C21.521 12.5779 21.0564 11.463 20.153 11.553C19.5459 11.6128 18.9447 11.7219 18.3553 11.8792C16.7891 12.3237 15.3656 13.168 14.2245 14.3291C13.0834 15.4903 12.2642 16.9284 11.8472 18.5021C11.4523 19.9321 11.3934 21.4341 11.675 22.8907C11.9566 24.3472 12.5711 25.719 13.4706 26.8988C14.37 28.0786 15.53 29.0345 16.86 29.6918C18.1899 30.3491 19.6539 30.6901 21.1374 30.6881C21.5334 30.6881 21.9294 30.6656 22.313 30.6206C23.2063 30.5081 23.4324 29.3134 22.6393 28.8859C21.1028 28.066 19.818 26.8439 18.9223 25.3501C18.0267 23.8564 17.5527 22.1473 17.5532 20.4056ZM29.6132 17.5785C30.9866 17.5743 32.345 17.8647 33.5967 18.43C34.8485 18.9953 35.9644 19.8224 36.8694 20.8556C37.4657 21.5306 38.5862 21.0694 38.495 20.1694C38.436 19.5668 38.3231 18.9708 38.1575 18.3885C37.2632 15.2126 34.7094 12.7354 31.5099 11.9017C25.0783 10.212 19.2924 15.0101 19.2924 21.1481C19.2924 21.5419 19.3149 21.9356 19.3599 22.3192C19.4724 23.2091 20.6739 23.4341 21.1025 22.6455C21.931 21.1114 23.1595 19.8303 24.6576 18.9384C26.1557 18.0464 27.8674 17.5769 29.6109 17.5796L29.6132 17.5785Z" fill="url(#paint0_linear_698_2957)"/>
</g>
<defs>
<linearGradient id="paint0_linear_698_2957" x1="10.079" y1="11.5478" x2="44.0526" y2="9.95421" gradientUnits="userSpaceOnUse">
<stop stop-color="#49D043"/>
<stop offset="1" stop-color="#FFB912"/>
</linearGradient>
<clipPath id="clip0_698_2957">
<rect width="27" height="27" fill="white" transform="translate(11.5 11.5)"/>
</clipPath>
</defs>
</svg>
