<svg width="50" height="50" viewBox="0 0 50 50" fill="none" xmlns="http://www.w3.org/2000/svg">
<rect width="50" height="50" rx="8" fill="#10130A"/>
<g clip-path="url(#clip0_698_2962)">
<path d="M28.4688 28.5612H21.4688C20.5024 28.5612 19.7188 29.3503 19.7188 30.3234V37.372C19.7188 38.345 20.5024 39.1341 21.4688 39.1341H28.4688C29.4351 39.1341 30.2188 38.345 30.2188 37.372V30.3234C30.2188 29.3503 29.4351 28.5612 28.4688 28.5612ZM17.9688 12.7018C17.9688 11.7288 17.1851 10.9397 16.2188 10.9397H9.21875C8.25242 10.9397 7.46875 11.7288 7.46875 12.7018V19.7505C7.46875 20.7235 8.25242 21.5126 9.21875 21.5126H14.4534L18.4544 28.5634C19.0614 27.5138 20.1781 26.7991 21.4688 26.7991H21.4841L17.9688 20.6046V17.9883H30.2188V14.464H17.9688V12.7018ZM40.7188 10.9397H33.7188C32.7524 10.9397 31.9688 11.7288 31.9688 12.7018V19.7505C31.9688 20.7235 32.7524 21.5126 33.7188 21.5126H40.7188C41.6851 21.5126 42.4688 20.7235 42.4688 19.7505V12.7018C42.4688 11.7288 41.6851 10.9397 40.7188 10.9397Z" fill="url(#paint0_linear_698_2962)"/>
</g>
<defs>
<linearGradient id="paint0_linear_698_2962" x1="5.62677" y1="10.9397" x2="49.6149" y2="8.38731" gradientUnits="userSpaceOnUse">
<stop stop-color="#49D043"/>
<stop offset="1" stop-color="#FFB912"/>
</linearGradient>
<clipPath id="clip0_698_2962">
<rect width="35" height="35" fill="white" transform="translate(7.46875 6.57959)"/>
</clipPath>
</defs>
</svg>
