<svg width="50" height="50" viewBox="0 0 50 50" fill="none" xmlns="http://www.w3.org/2000/svg">
<rect width="50" height="50" rx="8" fill="#10130A"/>
<g clip-path="url(#clip0_698_2967)">
<path d="M19.1636 24.0254L18.1914 27.0393H20.1359L19.1636 24.0254Z" fill="url(#paint0_linear_698_2967)"/>
<path d="M37.9253 10.9001H22.3698V15.7613H26.2587V17.7057H13.6198C11.967 17.7057 10.7031 18.9696 10.7031 20.6224V31.3168C10.7031 32.9696 11.967 34.2335 13.6198 34.2335H14.592V39.1918L20.717 34.2335H27.2309V27.4279H37.9253C39.5781 27.4279 40.842 26.164 40.842 24.5113V13.8168C40.842 12.164 39.5781 10.9001 37.9253 10.9001ZM21.2031 30.2474L20.717 28.6918H17.7031L17.1198 30.2474H14.7865L17.9948 21.5946H20.3281L23.5365 30.2474H21.2031ZM35.9809 22.5668V24.5113C34.717 24.5113 33.3559 24.1224 32.1892 23.539C31.0226 24.1224 29.6615 24.414 28.3003 24.5113L28.2031 22.5668C28.8837 22.5668 29.5642 22.4696 30.2448 22.2751C29.3698 21.4001 28.7865 20.3307 28.4948 19.164H30.5365C30.8281 20.039 31.4115 20.7196 32.092 21.3029C33.1615 20.4279 33.842 19.164 33.9392 17.7057H28.1059V15.7613H31.0226V13.8168H32.967V15.7613H36.1753L36.2726 16.7335C36.3698 18.7751 35.592 20.8168 34.1337 22.2751C34.8142 22.4696 35.3976 22.5668 35.9809 22.5668Z" fill="url(#paint1_linear_698_2967)"/>
</g>
<defs>
<linearGradient id="paint0_linear_698_2967" x1="18.0891" y1="24.0254" x2="20.5389" y2="23.9515" gradientUnits="userSpaceOnUse">
<stop stop-color="#49D043"/>
<stop offset="1" stop-color="#FFB912"/>
</linearGradient>
<linearGradient id="paint1_linear_698_2967" x1="9.11697" y1="10.9001" x2="47.0292" y2="9.01235" gradientUnits="userSpaceOnUse">
<stop stop-color="#49D043"/>
<stop offset="1" stop-color="#FFB912"/>
</linearGradient>
<clipPath id="clip0_698_2967">
<rect width="35" height="35" fill="white" transform="translate(8.46875 7.9834)"/>
</clipPath>
</defs>
</svg>
